<svg xmlns="http://www.w3.org/2000/svg" width="60" height="54" viewBox="0 0 60 54">
    <g fill="none">
        <path fill="#44475B" d="M7.28 41.583l-.666-2.63c-1.182-.5-2.392-.934-3.623-1.3l-.084 1.223-.341-1.346C1.039 37.094 0 36.9 0 36.9s1.403 5.336 4.346 9.415l3.429.602-2.664.384c.37.446.768.867 1.192 1.263 4.28 3.974 9.049 5.797 10.65 4.072 1.6-1.725-.572-6.344-4.853-10.318-1.327-1.232-2.994-2.22-4.663-2.998l-.156 2.262z" opacity=".1"/>
        <path fill="#44475B" d="M13.622 38.728l.789-2.596c-.753-1.04-1.564-2.037-2.43-2.986l-.703 1.003.403-1.33C10.6 31.658 9.81 30.957 9.81 30.957s-1.557 5.293-1.146 10.305l2.624 2.289-2.48-1.049c.088.573.21 1.14.368 1.697 1.61 5.615 4.75 9.64 7.012 8.991 2.262-.649 2.79-5.726 1.18-11.34-.5-1.741-1.416-3.45-2.443-4.978l-1.303 1.857zM51.163 49.346l.497-.536c-.06-.34-.14-.677-.238-1.009l-.288.16.254-.274c-.125-.409-.234-.671-.234-.671s-1 1.098-1.49 2.36l.367.863-.477-.546c-.046.15-.083.301-.11.455-.27 1.548.016 2.892.64 3.001.624.109 1.35-1.059 1.62-2.607.074-.495.072-.999-.007-1.493l-.534.297zM58.504 50.405l.701-.202c.125-.322.231-.652.319-.986l-.33-.012.36-.104c.103-.414.146-.695.146-.695s-1.423.424-2.495 1.25l-.132.929-.127-.714c-.116.104-.226.215-.33.332-1.03 1.186-1.48 2.485-1.002 2.9.478.416 1.702-.209 2.734-1.395.319-.385.577-.817.766-1.28l-.61-.023z" opacity=".1"/>
        <path fill="#5367FF" d="M38.887 3.622v45.912c0 2-1.621 3.622-3.622 3.622H17.423c-2 0-3.622-1.621-3.623-3.622V3.622c0-2 1.623-3.622 3.623-3.622h2.165c-.216.53-.154 1.134.166 1.61.32.475.854.76 1.427.761h10.173c.572 0 1.108-.286 1.427-.761.32-.476.382-1.08.166-1.61h2.318c2 0 3.622 1.622 3.622 3.622z"/>
        <path fill="#FFF" d="M23.83 19.016c0-.64.341-1.232.896-1.552-.754-.435-1.71-.267-2.27.4-.559.666-.559 1.637 0 2.303.56.667 1.516.835 2.27.4-.555-.32-.897-.911-.896-1.551z"/>
        <path fill="#FFF" d="M26.082 19.016c0-.64.342-1.232.896-1.552-.753-.435-1.71-.267-2.269.4-.559.666-.559 1.637 0 2.303.56.667 1.516.835 2.27.4-.555-.32-.897-.911-.897-1.551z"/>
        <circle cx="28.284" cy="19.016" r="1.792" fill="#00D09C"/>
        <path fill="#FFF" d="M18.343 30.743H34.36V31.743H18.343z"/>
        <circle cx="18.849" cy="29.3" r="1" fill="#6C63FF"/>
        <path fill="#FFF" d="M18.343 35.801H34.36V36.801H18.343z"/>
        <circle cx="18.849" cy="34.358" r="1" fill="#6C63FF"/>
        <path fill="#FFF" d="M31.278 24.612H20.835c-.207 0-.375-.168-.375-.375V13.794c0-.207.168-.375.375-.375h10.443c.207 0 .375.168.375.375v10.443c0 .207-.168.375-.375.375zM20.835 13.57c-.124 0-.225.1-.225.225v10.443c0 .125.1.225.225.225h10.443c.125 0 .225-.1.225-.225V13.794c0-.124-.1-.225-.225-.225H20.835z"/>
        <rect width="5.648" height="2.36" x="28.712" y="39.164" fill="#00D09C" rx=".3"/>
        <path fill="#3F3D56" d="M0.06 53.083H59.7V54.083H0.06z"/>
        <path fill="#FFB8B8" d="M48.34 24.381s-.209 1.315 0 1.523c.207.207-1.316 1.938-1.316 1.938l-1.246-1.73s.554-.9.346-1.662l2.215-.069z"/>
        <path fill="#2F2E41" d="M43.772 34.278L42.871 43.898 43.217 51.373 44.878 50.888 44.948 44.175 46.886 38.361 48.062 44.659 47.923 51.027 50 51.096 50.138 44.037 50.382 34.177z"/>
        <path fill="#2F2E41" d="M47.993 50.819v1.523s-.346 1.107.761 1.038c1.108-.07 1.038-.554 1.038-.554l-.415-1.869-1.384-.138zM44.81 50.819v1.523s.345 1.107-.762 1.038c-1.107-.07-1.038-.554-1.038-.554l.415-1.869 1.384-.138z"/>
        <circle cx="47.163" cy="23.551" r="1.592" fill="#FFB8B8"/>
        <path fill="#575A89" d="M47.093 27.08l.139-.692h.346l.669-.962.577.547.138 3.253h-3.737l.346-3.46.504-.34s-.089 1.17.88 1.17l.138.484z"/>
        <path fill="#D0CDE1" d="M45.64 26.319s.573.726 1.428.674c.856-.051 1.686-.743 1.686-.743l1.177 8.997s-1.315.138-1.73-.554l-3.184-.069.07-8.374.553.069z"/>
        <path fill="#2F2E41" d="M46.107 25.306l-3.028 1.497.761 4.291s.277 1.592 0 2.215c-.276.623-.553 4.776-.553 4.776s3.114.346 2.699-4.568c-.415-4.914.121-8.21.121-8.21z"/>
        <path fill="#FFB8B8" d="M44.256 35.662l.415.415s1.246 2.146 1.8 1.385c.553-.762-.97-2.077-.97-2.077l-.692-.553-.553.83z"/>
        <path fill="#2F2E41" d="M48.249 25.306l2.997 1.497-1.038 5.122s.069 1.66.415 2.56c.346.9.208 3.53.208 3.53s-.416 1.592-1.315-2.353c-.9-3.945-1.267-10.356-1.267-10.356z"/>
        <path fill="#FFB8B8" d="M50.554 33.17h-.623s-2.076-.276-1.938.554c.138.83 2.076.623 2.076.623l.762-.069-.277-1.107z"/>
        <path fill="#2F2E41" d="M43.494 26.596l-.484.207s-.484 1.039-.554 1.385c-.069.346-.9 4.498-.692 4.983.208.484 2.284 3.045 2.284 3.045l1.177-1.246-1.73-2.353.484-2.976-.485-3.045zM50.208 26.665l.915.077.192.061s1.938 5.26 1.523 6.09c-.416.831-2.215 2.354-2.215 2.354l-.484-2.146.9-.83-.9-2.768.069-2.838zM48.51 22.323s.416-.781-.5-.852c0 0-.833-.498-1.5.07 0 0-.583-.141-.75.285 0 0-.083-.213.167-.355 0 0-.583-.142-.583.568 0 0-.25.71 0 1.35.25.64.333.71.333.71s-.41-1.34.59-1.411c.999-.071 2.117-.684 2.2.097.084.781.25.995.25.995s.75-1.137-.208-1.457z"/>
    </g>
</svg>
