<?xml version="1.0" encoding="utf-8"?>
<!-- Generator: Adobe Illustrator 23.0.5, SVG Export Plug-In . SVG Version: 6.00 Build 0)  -->
<svg version="1.1" xmlns="http://www.w3.org/2000/svg" xmlns:xlink="http://www.w3.org/1999/xlink" x="0px" y="0px"
	 viewBox="0 0 512 512" style="enable-background:new 0 0 512 512;" xml:space="preserve">
<style type="text/css">
	.st0{display:none;}
	.st1{display:inline;}
	.st2{fill:#EBF4FF;}
	.st3{fill:none;}
	.st4{clip-path:url(#SVGID_2_);}
	.st5{fill:#5E92DD;}
	.st6{fill:#A3BFE8;}
	.st7{fill:#FFFFFF;}
	.st8{clip-path:url(#SVGID_4_);}
	.st9{fill-rule:evenodd;clip-rule:evenodd;fill:#FFB17E;}
	.st10{fill:#EE936B;}
	.st11{fill:#FFAE78;}
	.st12{fill:#FFFFFF;stroke:#ACC8EA;stroke-miterlimit:10;}
	.st13{fill:#0065CB;}
	.st14{fill:#FF5924;}
	.st15{fill:#1166DD;}
	.st16{clip-path:url(#SVGID_6_);}
	.st17{fill-rule:evenodd;clip-rule:evenodd;fill:#F1F4FF;}
	.st18{fill:#9BB0C5;}
	.st19{fill:#B6C6D3;}
	.st20{fill:#C4CFE2;}
	.st21{fill:#F1F4FF;}
	.st22{fill:#01588D;}
	.st23{fill:#7A8193;}
	.st24{fill:#00A9A2;}
	.st25{clip-path:url(#SVGID_8_);}
	.st26{opacity:0.5;fill:#FFB071;}
	.st27{fill:#FFB071;}
	.st28{fill:#FFD72C;}
	.st29{fill:#52E199;}
	.st30{opacity:0.5;}
	.st31{opacity:0.5;fill:#72A1EA;}
	.st32{fill:#72A1EA;}
</style>
<g id="Layer_1" class="st0">
	<g>
		<g class="st1">
			<g>
				<circle class="st2" cx="256.7" cy="257.3" r="255.3"/>
				<circle class="st3" cx="256.7" cy="257.3" r="255.3"/>
				<g>
					<g>
						<g>
							<g>
								<defs>
									<circle id="SVGID_1_" cx="256.7" cy="257.3" r="255.3"/>
								</defs>
								<clipPath id="SVGID_2_">
									<use xlink:href="#SVGID_1_"  style="overflow:visible;"/>
								</clipPath>
								<g class="st4">
									<path id="Shape_1_" class="st5" d="M295.6,221.3v-26.2c0-24.1-19.5-43.6-43.6-43.6s-43.6,19.5-43.6,43.6v26.2h-26.2v-26.2
										c0-38.5,31.2-69.7,69.7-69.7s69.7,31.2,69.7,69.7v26.2H295.6z"/>
									<path class="st6" d="M160.5,330.3v30.5c0,9.6,7.8,17.4,17.4,17.4h148.2c9.6,0,17.4-7.8,17.4-17.4v-122
										c0-9.6-7.8-17.4-17.4-17.4H177.9c-9.6,0-17.4,7.8-17.4,17.4V330.3z"/>
									<path class="st7" d="M298.3,267.4H377c5.1,0,9.2,4.2,9.3,9.3V323c0,5.1-4.2,9.2-9.3,9.3H127c-5.1,0-9.2-4.2-9.3-9.3v-46.3
										c0-5.1,4.2-9.2,9.3-9.3L298.3,267.4L298.3,267.4z"/>
									<g>
										<path class="st5" d="M171.2,288.4c-0.7-1-1.7-1.7-2.8-1.9c-1.2-0.2-2.4,0-3.3,0.7l-6.4,4.3v-5c0-2.5-2-4.5-4.5-4.5
											s-4.5,2-4.5,4.5v5l-6.4-4.3c-2-1.4-4.8-0.8-6.2,1.2s-0.8,4.8,1.2,6.2l7.8,5.2l-7.8,5.2c-2,1.4-2.6,4.1-1.2,6.2
											c1.4,2,4.1,2.6,6.2,1.2l6.4-4.3v5c0,2.5,2,4.5,4.5,4.5s4.5-2,4.5-4.5v-5l6.4,4.3c1.3,0.9,3,1,4.4,0.3s2.4-2.1,2.5-3.7
											s-0.6-3.1-2-4l-7.8-5.2l7.8-5.2c1-0.7,1.7-1.7,1.9-2.8C172,290.6,171.8,289.4,171.2,288.4L171.2,288.4z"/>
										<path class="st5" d="M220.1,288.4c-0.7-1-1.7-1.7-2.8-1.9c-1.2-0.2-2.4,0-3.3,0.7l-6.4,4.3v-5c0-2.5-2-4.5-4.5-4.5
											s-4.5,2-4.5,4.5v5l-6.4-4.3c-2-1.4-4.8-0.8-6.2,1.2s-0.8,4.8,1.2,6.2l7.8,5.2l-7.8,5.2c-1.3,0.9-2.1,2.4-2,4s1,3,2.5,3.7
											s3.1,0.6,4.4-0.3l6.4-4.3v5c0,2.5,2,4.5,4.5,4.5s4.5-2,4.5-4.5v-5l6.4,4.3c1.3,0.9,3,1,4.4,0.3s2.4-2.1,2.5-3.7
											s-0.6-3.1-2-4l-7.8-5.2l7.8-5.2c1-0.7,1.7-1.7,1.9-2.8C221,290.6,220.8,289.4,220.1,288.4L220.1,288.4z"/>
										<path class="st5" d="M318.1,288.4c-0.7-1-1.7-1.7-2.8-1.9c-1.2-0.2-2.4,0-3.3,0.7l-6.4,4.3v-5c0-2.5-2-4.5-4.5-4.5
											s-4.5,2-4.5,4.5v5l-6.4-4.3c-2-1.4-4.8-0.8-6.2,1.2c-1.4,2-0.8,4.8,1.2,6.2l7.8,5.2l-7.8,5.2c-2,1.4-2.6,4.1-1.2,6.2
											c1.4,2,4.1,2.6,6.2,1.2l6.4-4.3v5c0,2.5,2,4.5,4.5,4.5s4.5-2,4.5-4.5v-5l6.4,4.3c1.3,0.9,3,1,4.4,0.3s2.4-2.1,2.5-3.7
											s-0.6-3.1-2-4l-7.8-5.2l7.8-5.2c1-0.7,1.7-1.7,1.9-2.8C319,290.6,318.7,289.4,318.1,288.4L318.1,288.4z"/>
										<path class="st5" d="M269.1,288.4c-0.7-1-1.7-1.7-2.8-1.9c-1.2-0.2-2.4,0-3.3,0.7l-6.4,4.3v-5c0-2.5-2-4.5-4.5-4.5
											s-4.5,2-4.5,4.5v5l-6.4-4.3c-2-1.4-4.8-0.8-6.2,1.2s-0.8,4.8,1.2,6.2l7.8,5.2l-7.8,5.2c-2,1.4-2.6,4.1-1.2,6.2
											c1.4,2,4.1,2.6,6.2,1.2l6.4-4.3v5c0,2.5,2,4.5,4.5,4.5s4.5-2,4.5-4.5v-5l6.4,4.3c1.3,0.9,3,1,4.4,0.3s2.4-2.1,2.5-3.7
											s-0.6-3.1-2-4l-7.8-5.2l7.8-5.2c1-0.7,1.7-1.7,1.9-2.8C270,290.6,269.8,289.4,269.1,288.4L269.1,288.4z"/>
										<path class="st5" d="M363.3,308.7h-26.7c-2.5,0-4.5,2-4.5,4.5s2,4.5,4.5,4.5h26.7c2.5,0,4.5-2,4.5-4.5
											S365.8,308.7,363.3,308.7z"/>
									</g>
								</g>
							</g>
						</g>
						<g>
							<g>
								<defs>
									<circle id="SVGID_3_" cx="256.7" cy="257.3" r="255.3"/>
								</defs>
								<clipPath id="SVGID_4_">
									<use xlink:href="#SVGID_3_"  style="overflow:visible;"/>
								</clipPath>
								<g class="st8">
									<g>
										<path class="st9" d="M341.5,606.4c0,0-6.3-26.7-10.9-32.2c-4.6-5.6-46.8-30.7-52.9-37.6c-6.1-6.9-27.4-31.4-27.5-40.9
											s0.9-19.4-2.8-47.3c-1.2-8.6,31.5-15.8,30.3,33.2c4,6.5,7.8,15.5,12.6,14.1c4.8-1.5-3.8-38.2-6.1-47.3
											c-2.4-9.1-30.1-70.3-34-90.9s16.6-27.1,22.2-12.9s26.9,60.1,29.3,63.8c0.9-10.8,2.9-24,6-28.7s36,1,38.4,11.4
											c14.3,5.4,22.6,12,23.9,22.4c7.2,4.8,18.7,20.1,22.5,27.8c3.8,7.8,4.5,100,6.4,115.1s14.5,39.3,14.5,39.3L341.5,606.4z"/>
										<path class="st10" d="M327,449.2c-0.7,0-1.3-0.5-1.5-1.2c0-0.1-1.8-7.3-5.3-11.2c-3.5-3.9-16.6-20.8-19.7-28.1
											c-0.4-0.8-0.1-1.7,0.7-2.1c0.8-0.4,1.7-0.1,2.1,0.7c0,0.1,0.1,0.1,0.1,0.2c2.8,6.5,15.1,22.8,19.1,27.2
											c4.1,4.5,6,12.3,6,12.6c0.2,0.8-0.3,1.7-1.2,1.9C327.3,449.2,327.2,449.2,327,449.2z"/>
										<path class="st10" d="M354.7,449.2c-0.6,0-1.1-0.3-1.4-0.8c-0.1-0.3-3.4-6.4-4.5-10.3c-1-3.9-3.7-40.6-4-44.7
											c0-0.9,0.7-1.6,1.6-1.6c0.8,0,1.5,0.6,1.6,1.4c1.2,16.3,3.2,41.5,3.9,44.2c0.9,3.5,4.2,9.6,4.2,9.6
											c0.4,0.8,0.1,1.7-0.6,2.1C355.2,449.1,354.9,449.2,354.7,449.2z"/>
										<path class="st10" d="M315.3,429.4c-0.9,0-1.5-0.7-1.6-1.5c-0.5-27.5,2.2-33.5,6.4-39.6c0.5-0.7,1.5-0.8,2.2-0.3
											c0.6,0.5,0.8,1.4,0.4,2.1c-3.9,5.5-6.4,11.1-5.8,37.7C316.9,428.7,316.2,429.4,315.3,429.4L315.3,429.4z"/>
										<path class="st10" d="M315.2,410.1c-0.4,0-0.8-0.2-1.1-0.5c-5.8-5.7-7.6-12.7-6.5-25c0.1-0.8,0.8-1.5,1.7-1.4
											c0,0,0,0,0.1,0c0.9,0.1,1.5,0.8,1.4,1.7l0,0c-1.2,12.9,1.2,18.2,5.5,22.4c0.6,0.6,0.6,1.6,0,2.2
											C316,409.9,315.6,410.1,315.2,410.1z"/>
										<path class="st10" d="M377.4,447.2c-0.4,0-0.8-0.2-1.1-0.5c-1.2-1.4-2.2-3-2.9-4.7c-0.7-1.7-1.6-7.6-3-16.5
											c-0.6-3.8-1.2-7.4-1.7-10c-0.2-0.9,0.4-1.7,1.3-1.8c0.9-0.2,1.7,0.4,1.8,1.3l0,0c0.5,2.6,1.1,6.2,1.7,10.1
											c1,6.4,2.3,14.3,2.9,15.8c0.5,1.3,1.3,2.6,2.2,3.7c0.6,0.6,0.6,1.6-0.1,2.2C378.1,447,377.7,447.2,377.4,447.2
											L377.4,447.2z"/>
									</g>
								</g>
							</g>
						</g>
					</g>
				</g>
			</g>
			<g>
				<circle class="st11" cx="396.6" cy="71.7" r="71"/>
				<g>
					<g>
						<path class="st7" d="M429,50.8c-2.1-2.1-5.5-2.1-7.6,0L387,85.1l-15.3-15.3c-2.1-2.1-5.5-2.1-7.6,0s-2.1,5.5,0,7.6l19.1,19.1
							c1.1,1.1,2.4,1.6,3.8,1.6s2.8-0.5,3.8-1.6L429,58.4C431.1,56.3,431.1,52.9,429,50.8z"/>
					</g>
				</g>
			</g>
		</g>
	</g>
	<g class="st1">
		<g>
			<circle class="st2" cx="254.5" cy="258.3" r="253.7"/>
			<circle class="st12" cx="118.1" cy="232.2" r="62.5"/>
			<circle class="st12" cx="254.7" cy="230.2" r="62.5"/>
			<g transform="translate(0.000000,365.000000) scale(0.100000,-0.100000)">
				<path class="st13" d="M2357.2,1798c-111.3-58.7-202.6-155.6-243.6-258.5c-24.3-60.7-31.6-100.4-31.6-169.5
					c0-56.4,3.8-88.5,16.4-138.9c55.9-221.8,249.2-351.6,496.8-333.1c22.3,1.8,41.5,4.3,42.7,5.6c1.5,1.3-1.3,2.3-7.6,2.3
					c-28.6,0-104.7,17.2-152,34.4c-174.3,63-284.3,181.1-314.4,336.7c-11.1,57.7-12.6,131-3.8,181.6c15.4,88,53.9,173.8,110,244.1
					c21.5,27.1,68,72.1,95.6,93.1c11.6,8.6,20.2,15.7,19,15.7C2383.8,1811.4,2371.4,1805.3,2357.2,1798z"/>
				<path class="st13" d="M2582.6,1759.3c-59.7-8.6-93.8-18.7-133.1-39.2c-95.9-50.3-176.8-160.4-199.8-271.2
					c-21-101.9,4.3-206.9,71.1-296.5c21.5-28.8,52.1-61.2,77.7-82.2c19.5-16.2,19.5-16.2,10.6-5.1c-40.5,50.3-78.9,127.5-95.6,192.8
					c-19,73.1-18.5,144.7,1.3,207.9c24,76.4,83.2,153.8,154.6,201.4c77.7,52.1,172.3,76.9,260.8,68.6c17.7-1.8,35.7-3.5,39.7-4.3
					c12.1-2-12.6,7.6-35.7,13.7c-34.9,9.4-64.5,13.4-104.7,14.4C2607.9,1760,2586.9,1759.8,2582.6,1759.3z"/>
				<path class="st13" d="M2661,1662.1c-165.9-18.5-274-136.6-281.3-307.3c-0.8-19.5-0.5-46.8,0.5-60.7l2-25.3l4.3,27.8
					c10.6,68.3,34.9,133.6,68.6,184.7c15.7,23.5,60.5,69.3,80.9,82.7c50.1,32.9,102.2,47.6,169.5,47.6c53.9,0,93.8-9.4,145.2-34.1
					c48.6-23.3,97.4-63,128.8-105c18-23.5,18.2-23.8,7.1-1c-18.2,36.4-40.2,66.3-72.3,98.7c-49.6,49.3-96.4,75.6-157.3,88.3
					C2733.4,1663.1,2687.1,1664.9,2661,1662.1z"/>
				<path class="st13" d="M2654.7,1523.2c-39.7-8.6-77.4-26.6-115.1-54.9c-18-13.4-55.9-51.1-66.5-66c-5.3-7.6-4.6-7.3,13.9,5.1
					c46,30.6,115.9,60.5,163.9,70.6c23,4.6,77.4,3.8,98.7-1.5c25-6.3,60.5-24,82-41c23-18,56.2-57.4,67.5-80.7
					c16.7-34.1,19.7-51.3,19.7-112.6c0.3-57.7-2.3-77.7-15.2-130c-3.5-13.7-5.8-25.3-5.3-26.1c2.3-2,36.9,71.8,44.3,94.6
					c12.6,38.7,16.7,62,16.7,98.1c0,40.2-6.1,67.8-22.3,101.2c-32.6,66.5-93.1,118.6-162.7,139.4
					C2744,1528.6,2687.3,1530.3,2654.7,1523.2z"/>
				<path class="st14" d="M2649.7,1378.8c0-34.9,0.5-34.4-21.8-23.5c-13.2,6.3-33.9,25.5-33.9,31.1c0,1.3-1.3,2.5-2.8,2.5
					c-3.5,0-35.2-27.6-35.2-30.9c0-4.6,26.6-28.1,44.8-40.2c43-27.8,85.8-31.9,129.3-12.1c19.5,8.9,43.3,25.5,58.7,41.2
					c9.6,10.1,10.6,12.1,7.6,14.9c-2,1.8-10.6,9.1-19.2,16.2l-15.2,13.2l-8.9-11.9c-9.6-12.9-28.8-27.1-41.2-30.4l-7.8-2l-0.8,31.1
					l-0.8,31.1h-26.3h-26.6L2649.7,1378.8L2649.7,1378.8z"/>
				<path class="st14" d="M2521.1,1319.6l-15.2-18.5l10.9-7.8c11.6-8.1,21.2-20.7,27.8-36.4l3.8-9.6H2518h-30.4v-26.6v-26.6h31.6
					h31.6l-1.5-6.8c-4.8-20.5-21-44-36.9-53.9l-7.1-4.3l15.4-18c8.6-10.1,16.2-18.2,17.2-18.2s6.8,5.3,13.2,12.1
					c29.6,30.6,45.5,60.7,50.3,93.8c5.6,40-10.6,83.2-46.3,122.9c-8.1,9.1-15.7,16.4-16.7,16.4
					C2537.3,1338.3,2529.8,1330,2521.1,1319.6z"/>
				<path class="st14" d="M2803.7,1329c-24.3-25.5-41.7-54.4-49.1-80.2c-3.3-11.1-4-21-3.3-39.2c1.3-27.3,6.3-42.7,21.8-68
					c9.6-16.2,37.2-48.6,41-48.6c1,0,9.1,8.1,17.7,18.2c14.2,16.2,15.2,18.2,10.9,20.5c-15.2,8.1-31.1,29.1-37.2,49.3l-3.8,13.2
					h31.6h31.4v26.6v26.3l-30.6,0.8l-30.6,0.8l8.6,16.4c7.6,14.7,22.5,30.1,32.9,33.4c3,1-26.6,40-30.6,40
					C2813.3,1338.3,2808.5,1334,2803.7,1329z"/>
				<path class="st14" d="M2653.4,1268.3c-19.2-10.1-29.1-26.1-29.1-47.6c0-30.1,21.8-52.1,51.6-52.4c47.3-0.5,71.3,58.9,36.4,90.6
					C2697.5,1272.6,2669.9,1277.1,2653.4,1268.3z"/>
				<path class="st14" d="M2648.9,1144.8c-24.5-6.3-53.1-22.8-75.1-43.5l-20-18.7l18.2-16.2c18-15.9,18.2-15.9,22-10.6
					c9.6,13.9,19.2,22.3,33.4,29.6c8.6,4,16.9,7.6,19,7.6c2.5,0,3.3-6.6,3.3-30.4v-30.4h26.6h26.6v30.4c0,34.4,0,34.1,19.2,25.5
					c12.6-5.8,27.1-18.2,33.9-29.6l5.6-8.6l18.7,15.4c10.4,8.6,18.7,16.4,18.7,17.5c0,4.3-34.7,33.6-50.6,43.3
					C2715.4,1145.6,2679,1152.4,2648.9,1144.8z"/>
			</g>
			<circle class="st12" cx="390.6" cy="230.2" r="62.5"/>
			<path class="st15" d="M387.6,279.1c-25.9-1.7-45.5-24-43.8-49.8s24-45.5,49.8-43.8c25.9,1.7,45.5,24,43.8,49.8
				c-1.5,23.5-20.3,42.3-43.8,43.8v-38.4c4.4-1.7,6.6-6.6,4.9-10.9c-1.7-4.4-6.6-6.6-10.9-4.9c-4.4,1.7-6.6,6.6-4.9,10.9
				c0.9,2.3,2.6,4.1,4.9,4.9"/>
			<g>
				<g>
					<g>
						<defs>
							<circle id="SVGID_5_" cx="254.5" cy="258.3" r="253.7"/>
						</defs>
						<clipPath id="SVGID_6_">
							<use xlink:href="#SVGID_5_"  style="overflow:visible;"/>
						</clipPath>
						<g class="st16">
							<path class="st5" d="M428.7,328.3c-0.1-0.2-0.2-0.3-0.3-0.5c-0.5-0.9-1.2-1.7-2.1-2.3l-64.2-48.7c-3.9-3-11-3.4-16-0.9
								l-184.4,90.3c-8.6,3.8-11.9,13.5-5.1,20.5l62.3,57.5c4.1,3.8,12.3,4.2,18.2,1l186.5-100.1
								C427.9,342.8,431.8,334.2,428.7,328.3L428.7,328.3z"/>
							<path class="st5" d="M220.3,435.1L158,377.6c-3.8-3.5-2-8.6,3.8-11.5l184.4-90.3c5-2.4,12.1-2,16,0.9l64.2,48.7
								c4.2,3.2,3.6,7.9-1.4,10.6L238.5,436.2C232.5,439.4,224.4,438.9,220.3,435.1z"/>
							<path class="st17" d="M225.8,431.8L164,375c-1.9-1.7-1-4.3,1.9-5.8l183.7-90.4c2.5-1.2,6.1-1,8.1,0.5l63.7,48.5
								c2.1,1.6,1.8,4-0.7,5.3l-185.6,99.2C232,433.9,227.9,433.7,225.8,431.8L225.8,431.8z"/>
							<path class="st18" d="M335.7,303.6c-3.7,1.8-8.9,1.5-11.7-0.7c-2.8-2.2-2.1-5.5,1.6-7.3s8.9-1.5,11.7,0.7
								S339.4,301.8,335.7,303.6L335.7,303.6z"/>
							<path class="st19" d="M362.4,330.6l-25.6-20.2l-3.2-0.4l9.3-4.7c1.5-0.7,3.3-0.6,4.7,0.3l25.2,19.7c1.2,0.9,0.9,2.3-0.5,3
								l-5.1,2.6C365.6,331.6,363.8,331.5,362.4,330.6z"/>
							<path class="st18" d="M315.8,313.6c-3.7,1.9-9.1,1.6-11.8-0.7c-2.8-2.3-2-5.6,1.7-7.4s9-1.5,11.8,0.7
								C320.3,308.4,319.6,311.7,315.8,313.6z"/>
							<path class="st18" d="M346.7,344.5l-29.9-24.1l-3.3-0.5l9.5-4.8c1.5-0.7,3.3-0.6,4.7,0.3l29.6,23.5c1.2,0.9,0.9,2.3-0.6,3.1
								l-5.1,2.7C349.9,345.6,348.1,345.5,346.7,344.5L346.7,344.5z"/>
							<path class="st18" d="M250.9,346.1c-4,2-9.5,1.7-12.2-0.7c-2.7-2.4-1.8-5.9,2.2-7.8s9.4-1.6,12.1,0.7
								C255.7,340.6,254.8,344.1,250.9,346.1z"/>
							<path class="st19" d="M272.4,371.3l-21-18l-3.4-0.5l10-5.1c1.6-0.8,3.7-0.7,4.9,0.3l20.6,17.5c1.1,1,0.8,2.4-0.8,3.2
								l-5.4,2.8C275.8,372.4,273.6,372.3,272.4,371.3z"/>
							<path class="st7" d="M304.3,335.9l39,31.9v2.3l9.7-5.2c1.5-0.8,1.8-2.2,0.6-3.2L315,330.5c-1.4-0.9-3.2-1-4.8-0.3l-5.2,2.6
								C303.4,333.6,303.1,335,304.3,335.9L304.3,335.9z"/>
							<path class="st7" d="M279.1,348.7l38.8,32.6v2.4l15.7-8.4c1.5-0.8,1.8-2.3,0.7-3.2l-38.5-31.7c-1.1-0.9-3.3-1.1-4.8-0.3
								l-11.1,5.6C278.3,346.3,278,347.7,279.1,348.7L279.1,348.7z"/>
							<path class="st20" d="M396.1,327c-1.2,0.6-2.7,0.5-3.9-0.2c-1-0.7-0.8-1.9,0.4-2.5c1.2-0.6,2.7-0.5,3.9,0.2
								C397.5,325.3,397.3,326.4,396.1,327z"/>
							<path class="st20" d="M401.8,331.4c-1.2,0.6-2.7,0.5-3.9-0.2c-1-0.8-0.8-1.9,0.4-2.5c1.2-0.6,2.7-0.5,3.9,0.2
								C403.2,329.7,403,330.8,401.8,331.4z"/>
							<path class="st20" d="M407.6,335.8c-1.3,0.6-2.7,0.5-3.9-0.2c-1-0.8-0.8-1.9,0.3-2.5c1.3-0.6,2.7-0.5,3.9,0.2
								C408.9,334.1,408.7,335.2,407.6,335.8z"/>
							<path class="st20" d="M165.9,369.2c-2.9,1.5-3.8,4-1.9,5.8l61.9,56.8c2.1,1.9,6.1,2.1,9.2,0.6l12.7-6.8l-69.3-62.5
								L165.9,369.2z"/>
							<path class="st21" d="M213.5,415.5L170.4,376c-2-1.9-1.1-4.6,2-6.2c3.1-1.5,7.3-1.3,9.4,0.5l43.3,39.1c2.2,2,1.4,4.9-1.8,6.5
								C220,417.8,215.7,417.5,213.5,415.5L213.5,415.5z"/>
							<path class="st20" d="M221.6,414.9c-1.9,1-4.6,0.9-5.9-0.3c-1.3-1.2-0.8-3,1.1-4c1.9-1,4.5-0.8,5.9,0.3
								S223.5,413.9,221.6,414.9z"/>
							<g>
								<path class="st21" d="M230.3,422.8c-1.9,1-4.6,0.9-5.9-0.3c-1.3-1.2-0.8-3,1.1-4c1.9-1,4.6-0.9,5.9,0.3
									C232.7,419.9,232.2,421.8,230.3,422.8z"/>
								<path class="st21" d="M232.7,426.7c-0.5-0.4-0.3-1.1,0.4-1.5l1.9-1c0.7-0.4,1.5-0.3,2.1,0.1c0.5,0.4,0.3,1.1-0.4,1.5l-1.9,1
									C234.2,427.1,233.4,427.1,232.7,426.7L232.7,426.7z"/>
								<path class="st21" d="M233.3,427.7c-0.5-0.1-1-0.2-1.3-0.6c-0.3-0.3-0.5-0.7-0.5-1.2c0.1-0.6,0.5-1.1,1.1-1.4l0.8-0.4
									c0.1-0.1,0.3,0,0.4,0.1c0.1,0.1,0,0.3-0.1,0.4l0,0l-0.8,0.4c-0.4,0.2-0.7,0.5-0.8,0.9c0,0.3,0.1,0.5,0.3,0.7
									c0.8,0.6,1.9,0.6,2.7,0.1l0.8-0.4c0.1-0.1,0.3,0,0.4,0.1c0.1,0.1,0,0.3-0.1,0.4l-0.8,0.4C234.7,427.7,234,427.8,233.3,427.7
									z"/>
								<path class="st21" d="M230.5,428.1c-0.1,0-0.3-0.1-0.2-0.3c0-0.1,0.1-0.2,0.1-0.2l1.6-0.9c0.1-0.1,0.3,0,0.4,0.1l0,0
									c0.1,0.1,0,0.3-0.1,0.4l0,0l-1.6,0.9C230.6,428.1,230.5,428.1,230.5,428.1z"/>
							</g>
							<path class="st9" d="M77.3,451.2c0,0,37.3-25.6,47.3-33.7s15.2-29.3,27.9-33.9s41.7-25.2,49.3-22.5
								c7.6,2.8,24.2,4.5,47.1,2.6c11.5-1,7.6,22.8-10.8,27.3c-13.3,3.2-28.7,3.7-32.5,4.3s-9.9,9.8-9.9,9.8s68.4-1.5,71.4-1.3
								c3,0.3,41.5-14.3,58.9-20.1c20.1-6.7,29.7,11.7,20.2,15.1c-19.9,7.2-28.5,12-28.5,12s-14.2,29-20.8,33.6
								c-6.6,4.6-15.4,7.1-15.4,7.1s-13.1,21.6-19.5,25.1s-10.6,4.3-14.3,6.8s-9.7,10.9-17.1,11.9c-7.4,1-63.2-0.9-74.4-0.5
								c-11.2,0.4-41.2,23.6-41.2,23.6L77.3,451.2z"/>
							<path class="st10" d="M248.1,438.1c-0.6-0.1-1-0.6-0.9-1.2c0.1-0.4,0.4-0.8,0.8-0.9c11.5-2.6,31.6-7.2,34.2-8.3
								c3.2-1.3,31-15.2,31.3-15.4c0.5-0.3,1.2-0.1,1.4,0.4c0.3,0.5,0.1,1.2-0.4,1.4c0,0,0,0-0.1,0c-1.1,0.6-28.2,14.1-31.5,15.4
								c-3.4,1.4-31.4,7.7-34.5,8.4C248.4,438.1,248.3,438.1,248.1,438.1L248.1,438.1z"/>
							<path class="st10" d="M249,461.8c-0.4-0.1-0.8-0.4-0.9-0.8c-0.1-0.6,0.3-1.1,0.8-1.2l0,0c3.1-0.6,27.7-6.5,27.9-6.5
								c0.6-0.2,1.1,0.2,1.3,0.7c0.2,0.6-0.2,1.1-0.7,1.3h-0.1c-1,0.2-24.9,5.9-28.1,6.5C249.2,461.8,249.1,461.8,249,461.8
								L249,461.8z"/>
							<path class="st10" d="M186,406c-1.1-0.1-2.2-0.4-3.2-0.7c-2.5-0.9-4.1-3.4-3.8-6.1c0.1-0.6,0.6-1,1.2-0.9
								c0.6,0,1,0.5,0.9,1.1c0,0,0,0,0,0.1c-0.2,1.7,0.8,3.3,2.4,3.8c3.1,1.1,10.1,1,10.2,1c0.6,0,1.1,0.4,1.1,1l0,0
								c0,0.6-0.5,1.1-1,1.1l0,0C191.2,406.4,188.6,406.3,186,406L186,406z"/>
						</g>
					</g>
				</g>
			</g>
			<g>
				<g>
					<circle class="st11" cx="409.7" cy="71.2" r="70.6"/>
				</g>
				<path class="st7" d="M440.4,66.9h-23.2V43.7c0-2.9-2.4-5.3-5.3-5.3s-5.3,2.4-5.3,5.3v23.2h-23.2c-2.9,0-5.3,2.4-5.3,5.3
					s2.4,5.3,5.3,5.3h23.2v23.2c0,2.9,2.4,5.3,5.3,5.3s5.3-2.4,5.3-5.3V77.5h23.2c2.9,0,5.3-2.4,5.3-5.3S443.3,66.9,440.4,66.9z"/>
			</g>
			<g>
				<polygon class="st22" points="152.3,265 84.1,265 73.2,248.3 163,248.3 				"/>
				<polygon class="st23" points="94.9,248.6 73.2,248.3 106.9,197.3 128.7,197.3 				"/>
				<polygon class="st24" points="141.3,248.6 163,248.3 129.3,197.3 107.5,197.3 				"/>
				<circle class="st24" cx="118.1" cy="236.4" r="7.9"/>
			</g>
		</g>
	</g>
</g>
<g id="Layer_2">
	<g>
		<g>
			<circle class="st2" cx="256.1" cy="258.1" r="252.9"/>
			<circle class="st12" cx="120.2" cy="232.1" r="62.3"/>
			<circle class="st12" cx="256.3" cy="230.1" r="62.3"/>
			<circle class="st12" cx="391.8" cy="230.1" r="62.3"/>
			<g>
				<defs>
					<circle id="SVGID_7_" cx="256.1" cy="258.1" r="252.9"/>
				</defs>
				<clipPath id="SVGID_8_">
					<use xlink:href="#SVGID_7_"  style="overflow:visible;"/>
				</clipPath>
				<g class="st25">
					<path class="st5" d="M429.8,327.9c-0.1-0.2-0.2-0.3-0.3-0.5c-0.5-0.9-1.2-1.7-2-2.3l-64-48.6c-3.9-2.9-11-3.4-16-0.9
						l-183.8,90.1c-8.6,3.8-11.8,13.4-5.1,20.5l62.1,57.3c4.1,3.8,12.2,4.2,18.2,1l185.9-99.8C429,342.4,432.9,333.8,429.8,327.9
						L429.8,327.9z"/>
					<path class="st5" d="M222,434.4l-62.1-57.3c-3.8-3.5-2-8.6,3.8-11.5l183.8-90.1c5-2.4,12.1-2,16,0.9l64,48.5
						c4.2,3.2,3.6,7.9-1.4,10.6l-185.8,99.8C234.2,438.6,226.1,438.1,222,434.4z"/>
					<path class="st17" d="M227.6,431.1l-61.7-56.7c-1.9-1.7-1-4.3,1.9-5.8l183.1-90.1c2.5-1.2,6.1-1,8,0.5l63.5,48.4
						c2.1,1.6,1.8,4-0.7,5.3l-185,98.9C233.7,433.2,229.6,432.9,227.6,431.1L227.6,431.1z"/>
					<path class="st18" d="M337.1,303.3c-3.7,1.8-8.9,1.5-11.7-0.7c-2.8-2.2-2.1-5.5,1.6-7.3c3.7-1.8,8.8-1.5,11.6,0.7
						C341.4,298.2,340.8,301.4,337.1,303.3L337.1,303.3z"/>
					<path class="st19" d="M363.7,330.1L338.1,310l-3.2-0.4l9.3-4.7c1.5-0.7,3.3-0.6,4.7,0.3l25.2,19.7c1.2,0.9,0.9,2.3-0.5,3
						l-5.1,2.6C366.9,331.2,365.1,331.1,363.7,330.1z"/>
					<path class="st18" d="M317.3,313.2c-3.7,1.9-9,1.6-11.8-0.7c-2.8-2.3-2-5.5,1.7-7.4s9-1.5,11.7,0.7
						C321.7,308,321,311.3,317.3,313.2z"/>
					<path class="st18" d="M348,344l-29.8-24l-3.3-0.5l9.4-4.7c1.5-0.7,3.3-0.6,4.7,0.3l29.5,23.5c1.2,0.9,0.9,2.3-0.6,3.1l-5.1,2.7
						C351.3,345.1,349.4,345,348,344L348,344z"/>
					<path class="st18" d="M252.5,345.6c-3.9,2-9.4,1.7-12.2-0.7s-1.8-5.8,2.2-7.8s9.3-1.6,12.1,0.7
						C257.4,340.1,256.4,343.6,252.5,345.6z"/>
					<path class="st19" d="M274,370.8l-21-17.9l-3.3-0.5l10-5.1c1.6-0.8,3.7-0.7,4.8,0.3l20.6,17.4c1.1,1,0.8,2.4-0.8,3.2l-5.4,2.8
						C277.4,371.9,275.2,371.7,274,370.8z"/>
					<path class="st7" d="M305.7,335.4l38.8,31.8l0,2.3l9.7-5.1c1.5-0.8,1.8-2.2,0.6-3.2L316.4,330c-1.4-0.9-3.2-1-4.8-0.3l-5.2,2.6
						C304.9,333.1,304.6,334.5,305.7,335.4L305.7,335.4z"/>
					<path class="st7" d="M280.7,348.2l38.7,32.5l0,2.3l15.7-8.4c1.5-0.8,1.8-2.3,0.7-3.2l-38.4-31.6c-1.1-0.9-3.3-1.1-4.8-0.3
						l-11.1,5.6C279.9,345.8,279.5,347.2,280.7,348.2L280.7,348.2z"/>
					<path class="st20" d="M397.3,326.6c-1.2,0.6-2.7,0.5-3.9-0.2c-1-0.7-0.8-1.9,0.4-2.5c1.2-0.6,2.7-0.5,3.9,0.2
						C398.6,324.8,398.5,326,397.3,326.6z"/>
					<path class="st20" d="M403,331c-1.2,0.6-2.7,0.5-3.9-0.2c-1-0.7-0.8-1.9,0.4-2.5c1.2-0.6,2.7-0.5,3.9,0.2
						C404.3,329.2,404.2,330.3,403,331z"/>
					<path class="st20" d="M408.7,335.4c-1.2,0.6-2.7,0.5-3.9-0.2c-1-0.8-0.8-1.9,0.3-2.5c1.2-0.6,2.7-0.5,3.9,0.2
						C410.1,333.6,409.9,334.8,408.7,335.4z"/>
					<path class="st20" d="M167.8,368.7c-2.9,1.4-3.8,4-1.9,5.8l61.7,56.7c2,1.9,6.1,2.1,9.1,0.6l12.6-6.8l-69.1-62.3L167.8,368.7z"
						/>
					<path class="st21" d="M215.3,414.9l-43-39.4c-2-1.9-1.1-4.6,2-6.2c3.1-1.5,7.3-1.3,9.3,0.5l43.1,39c2.2,1.9,1.4,4.9-1.8,6.5
						C221.8,417.1,217.4,416.8,215.3,414.9L215.3,414.9z"/>
					<path class="st20" d="M223.3,414.2c-1.9,1-4.6,0.9-5.9-0.3s-0.8-3,1.1-4s4.5-0.8,5.8,0.3C225.7,411.4,225.2,413.2,223.3,414.2z
						"/>
					<g>
						<path class="st21" d="M232,422c-1.9,1-4.6,0.9-5.9-0.3c-1.3-1.2-0.8-3,1.1-4c1.9-1,4.6-0.9,5.9,0.3
							C234.4,419.2,233.9,421.1,232,422z"/>
						<path class="st21" d="M234.4,425.9c-0.5-0.4-0.3-1.1,0.4-1.5l1.9-1c0.7-0.4,1.5-0.3,2.1,0.1c0.5,0.4,0.3,1.1-0.4,1.5l-1.9,1
							C235.9,426.4,235,426.4,234.4,425.9L234.4,425.9z"/>
						<path class="st21" d="M235,427c-0.5-0.1-1-0.2-1.3-0.6c-0.3-0.3-0.5-0.7-0.5-1.2c0.1-0.6,0.5-1.1,1.1-1.4l0.8-0.4
							c0.1-0.1,0.3,0,0.4,0.1c0.1,0.1,0,0.3-0.1,0.4c0,0,0,0,0,0l-0.8,0.4c-0.4,0.2-0.7,0.5-0.8,0.9c0,0.3,0.1,0.5,0.3,0.7
							c0.8,0.6,1.9,0.6,2.7,0.1l0.8-0.4c0.1-0.1,0.3,0,0.4,0.1c0.1,0.1,0,0.3-0.1,0.4l-0.8,0.4C236.3,426.9,235.6,427.1,235,427z"/>
						<path class="st21" d="M232.2,427.3c-0.1,0-0.3-0.1-0.2-0.3c0-0.1,0.1-0.2,0.1-0.2l1.6-0.9c0.1-0.1,0.3,0,0.4,0.1c0,0,0,0,0,0
							c0.1,0.1,0,0.3-0.1,0.4c0,0,0,0,0,0l-1.6,0.9C232.3,427.3,232.2,427.3,232.2,427.3z"/>
					</g>
					<path class="st9" d="M79.5,450.4c0,0,37.2-25.5,47.1-33.6s15.2-29.2,27.8-33.8c12.7-4.6,41.5-25.2,49.1-22.4s24.2,4.5,46.9,2.6
						c11.5-1,7.5,22.7-10.7,27.2c-13.3,3.2-28.6,3.7-32.4,4.3c-3.8,0.6-9.8,9.7-9.8,9.7s68.1-1.5,71.1-1.3s41.3-14.2,58.7-20.1
						c20-6.7,29.6,11.7,20.2,15.1c-19.8,7.2-28.4,12-28.4,12s-14.2,28.9-20.7,33.5c-6.6,4.6-15.3,7.1-15.3,7.1s-13.1,21.6-19.5,25
						s-10.6,4.3-14.2,6.8c-3.6,2.5-9.7,10.9-17,11.9s-63-0.9-74.1-0.5c-11.1,0.4-41,23.6-41,23.6L79.5,450.4z"/>
					<path class="st10" d="M249.8,437.3c-0.6-0.1-1-0.6-0.9-1.2c0.1-0.4,0.4-0.8,0.8-0.9c11.4-2.6,31.5-7.2,34.1-8.3
						c3.2-1.3,30.9-15.2,31.2-15.3c0.5-0.3,1.1-0.1,1.4,0.4s0.1,1.1-0.4,1.4c0,0,0,0-0.1,0c-1.1,0.5-28.1,14-31.4,15.4
						c-3.4,1.4-31.3,7.7-34.4,8.4C250,437.3,249.9,437.4,249.8,437.3L249.8,437.3z"/>
					<path class="st10" d="M250.6,461c-0.4-0.1-0.8-0.4-0.9-0.8c-0.1-0.6,0.3-1.1,0.8-1.2c0,0,0,0,0,0c3.1-0.6,27.6-6.4,27.9-6.5
						c0.6-0.2,1.1,0.1,1.3,0.7c0.2,0.6-0.1,1.1-0.7,1.3c0,0-0.1,0-0.1,0c-1,0.2-24.8,5.9-28,6.5C250.8,461,250.7,461,250.6,461
						L250.6,461z"/>
					<path class="st10" d="M187.9,405.3c-1.1-0.1-2.1-0.4-3.2-0.7c-2.5-0.9-4.1-3.4-3.8-6.1c0.1-0.6,0.6-1,1.2-0.9
						c0.6,0,1,0.5,0.9,1.1c0,0,0,0,0,0.1c-0.2,1.7,0.8,3.3,2.4,3.8c3.1,1.1,10.1,1,10.2,1c0.6,0,1.1,0.4,1.1,1c0,0,0,0,0,0
						c0,0.6-0.5,1.1-1,1.1c0,0,0,0,0,0C193,405.7,190.4,405.6,187.9,405.3L187.9,405.3z"/>
				</g>
			</g>
			<g>
				<g>
					<circle class="st11" cx="410.9" cy="71.6" r="70.3"/>
				</g>
				<path class="st7" d="M441.4,67.3h-23.2V44.2c0-2.9-2.4-5.3-5.3-5.3s-5.3,2.4-5.3,5.3v23.2h-23.2c-2.9,0-5.3,2.4-5.3,5.3
					c0,2.9,2.4,5.3,5.3,5.3h23.2v23.2c0,2.9,2.4,5.3,5.3,5.3s5.3-2.4,5.3-5.3V77.9h23.2c2.9,0,5.3-2.4,5.3-5.3
					C446.7,69.7,444.4,67.3,441.4,67.3z"/>
			</g>
		</g>
		<g>
			<path class="st26" d="M256.3,251.4c-5.8,0-11.2-1.6-15.9-4.5v21.5c0,1.1,1.3,1.8,2.2,1.2l12.9-8.4c0.5-0.3,1.1-0.3,1.6,0
				l12.9,8.4c0.9,0.6,2.2-0.1,2.2-1.2V247C267.5,249.8,262.1,251.4,256.3,251.4L256.3,251.4z"/>
			<path class="st27" d="M256.3,193.9c-14.8,0-26.7,12-26.7,26.7c0,14.8,12,26.7,26.7,26.7c14.8,0,26.7-12,26.7-26.7
				C283,205.9,271.1,193.9,256.3,193.9z M265.3,219l-4.5,3.9l1.3,5.8c0.1,0.4-0.1,0.9-0.4,1.1c-0.4,0.3-0.8,0.3-1.2,0.1l-5.1-3.1
				l-5.1,3.1c-0.2,0.1-0.4,0.2-0.6,0.2c-0.2,0-0.4-0.1-0.6-0.2c-0.4-0.3-0.5-0.7-0.4-1.1l1.3-5.8l-4.5-3.9c-0.3-0.3-0.5-0.7-0.3-1.2
				c0.1-0.4,0.5-0.7,0.9-0.8l5.9-0.5l2.3-5.5c0.2-0.4,0.6-0.7,1-0.7c0.4,0,0.8,0.3,1,0.7l2.3,5.5l5.9,0.5c0.4,0,0.8,0.3,0.9,0.8
				C265.7,218.2,265.6,218.7,265.3,219z"/>
		</g>
		<g>
			<g>
				<g>
					<path class="st28" d="M391,230.6c0.8,0.8,2,0.7,2.7,0c0,0,0,0,0,0l11.4-11.4h7.1c0.5,0,1-0.2,1.4-0.6l12.1-12.1
						c0.6-0.6,0.7-1.4,0.4-2.2c-0.3-0.7-1-1.2-1.8-1.2h-6.1v-6c0-0.8-0.5-1.5-1.2-1.8c-0.7-0.3-1.6-0.1-2.2,0.4l-12,12.1
						c-0.4,0.4-0.6,0.9-0.6,1.4v7.1L391,227.7c0,0,0,0,0,0C390.2,228.6,390.2,229.8,391,230.6z"/>
				</g>
			</g>
			<g>
				<g>
					<g>
						<path class="st29" d="M358.4,229.1c0,18.7,15.3,34,34,34c18.7,0,34-15.3,34-34c0-5.1-1.3-9.9-3.3-14.3L417,221
							c0.9,2.6,1.3,5.3,1.3,8.1c0,14.3-11.6,25.9-25.9,25.9c-14.3,0-25.9-11.6-25.9-25.9s11.6-25.9,25.9-25.9c2.8,0,5.6,0.5,8.1,1.3
							l6.1-6.1c-4.3-2-9.2-3.3-14.3-3.3C373.7,195.1,358.4,210.5,358.4,229.1z"/>
					</g>
				</g>
			</g>
			<g class="st30">
				<g>
					<g>
						<path class="st29" d="M374.5,229.1c0,9.9,8,17.9,17.9,17.9c9.9,0,17.9-8,17.9-17.9c0-2.1-0.4-4.1-1.1-6h-2.4l-4.6,4.6
							c0.1,0.5,0.1,0.9,0.1,1.4c0,5.5-4.5,10-10,10c-5.5,0-10-4.5-10-10s4.5-10,10-10c0.5,0,0.9,0.1,1.4,0.1l4.6-4.6v-2.4
							c-1.9-0.7-3.9-1.1-6-1.1C382.5,211.2,374.5,219.3,374.5,229.1z"/>
					</g>
				</g>
			</g>
		</g>
		<g>
			<polygon class="st31" points="119,216 124.5,230 104.7,230 110.3,216 			"/>
			<path class="st32" d="M130.5,230h17.5c-0.3-1-0.7-1.9-1.3-2.7l-5.7-7.8c-1.6-2.2-4.1-3.4-6.8-3.4H125L130.5,230z"/>
			<polygon class="st32" points="124.7,235.6 104.5,235.6 114.6,266 			"/>
			<path class="st32" d="M130.6,235.6l-7.7,23.1l22.8-20.5c0.7-0.7,1.3-1.6,1.8-2.6H130.6z"/>
			<path class="st32" d="M98.6,235.6H81.7c0.4,1,1.1,1.9,1.8,2.7l22.7,20.4L98.6,235.6z"/>
			<path class="st32" d="M98.7,230l5.6-14h-9.3c-2.7,0-5.2,1.3-6.8,3.4l-5.7,7.8c-0.6,0.8-1.1,1.8-1.3,2.7H98.7z"/>
			<g>
				<path class="st28" d="M114.9,210c1.4,0,2.6-1.2,2.6-2.6v-5.1c0-1.4-1.2-2.6-2.6-2.6c-1.4,0-2.6,1.2-2.6,2.6v5.1
					C112.3,208.8,113.5,210,114.9,210z"/>
				<path class="st28" d="M126.6,209.7c1.3,0.6,2.8,0.1,3.5-1.1c0,0,0,0,0,0l2.6-5.1c0.6-1.3,0.1-2.8-1.2-3.5
					c-1.3-0.6-2.8-0.1-3.5,1.2l-2.6,5.1C124.9,207.5,125.4,209.1,126.6,209.7C126.6,209.7,126.6,209.7,126.6,209.7z"/>
				<path class="st28" d="M99.7,208.6c0.6,1.3,2.2,1.8,3.5,1.2c1.3-0.6,1.8-2.2,1.2-3.5l-2.6-5.1c-0.6-1.3-2.2-1.8-3.5-1.2
					c-1.3,0.6-1.8,2.2-1.2,3.5L99.7,208.6z"/>
			</g>
		</g>
	</g>
</g>
</svg>
