<?xml version="1.0" encoding="utf-8"?>
<!-- Generator: Adobe Illustrator 23.0.5, SVG Export Plug-In . SVG Version: 6.00 Build 0)  -->
<!DOCTYPE svg PUBLIC "-//W3C//DTD SVG 1.1//EN" "http://www.w3.org/Graphics/SVG/1.1/DTD/svg11.dtd" [
	<!ENTITY ns_extend "http://ns.adobe.com/Extensibility/1.0/">
	<!ENTITY ns_ai "http://ns.adobe.com/AdobeIllustrator/10.0/">
	<!ENTITY ns_graphs "http://ns.adobe.com/Graphs/1.0/">
	<!ENTITY ns_vars "http://ns.adobe.com/Variables/1.0/">
	<!ENTITY ns_imrep "http://ns.adobe.com/ImageReplacement/1.0/">
	<!ENTITY ns_sfw "http://ns.adobe.com/SaveForWeb/1.0/">
	<!ENTITY ns_custom "http://ns.adobe.com/GenericCustomNamespace/1.0/">
	<!ENTITY ns_adobe_xpath "http://ns.adobe.com/XPath/1.0/">
]>
<svg version="1.1" id="Layer_1" xmlns:x="&ns_extend;" xmlns:i="&ns_ai;" xmlns:graph="&ns_graphs;"
	 xmlns="http://www.w3.org/2000/svg" xmlns:xlink="http://www.w3.org/1999/xlink" x="0px" y="0px" viewBox="0 0 512 512"
	 style="enable-background:new 0 0 512 512;" xml:space="preserve">
<style type="text/css">
	.st0{fill:#EBF4FF;}
	.st1{fill:none;}
	.st2{clip-path:url(#SVGID_2_);}
	.st3{fill:#5E92DD;}
	.st4{fill:#A3BFE8;}
	.st5{fill:#FFFFFF;}
	.st6{fill-rule:evenodd;clip-rule:evenodd;fill:#FFB17E;}
	.st7{fill:#EE936B;}
	.st8{fill:#FFAE78;}
</style>
<metadata>
	<sfw  xmlns="&ns_sfw;">
		<slices></slices>
		<sliceSourceBounds  bottomLeftOrigin="true" height="605.7" width="510.7" x="1.3" y="-94.4"></sliceSourceBounds>
	</sfw>
</metadata>
<g>
	<g>
		<circle class="st0" cx="256.7" cy="257.3" r="255.3"/>
		<circle class="st1" cx="256.7" cy="257.3" r="255.3"/>
		<g>
			<g>
				<defs>
					<circle id="SVGID_1_" cx="256.7" cy="257.3" r="255.3"/>
				</defs>
				<clipPath id="SVGID_2_">
					<use xlink:href="#SVGID_1_"  style="overflow:visible;"/>
				</clipPath>
				<g class="st2">
					<path id="Shape_1_" class="st3" d="M295.6,221.3v-26.2c0-24.1-19.5-43.6-43.6-43.6s-43.6,19.5-43.6,43.6v26.2h-26.2v-26.2
						c0-38.5,31.2-69.7,69.7-69.7s69.7,31.2,69.7,69.7v26.2H295.6z"/>
					<path class="st4" d="M160.5,330.3v30.5c0,9.6,7.8,17.4,17.4,17.4h148.2c9.6,0,17.4-7.8,17.4-17.4V238.8
						c0-9.6-7.8-17.4-17.4-17.4H177.9c-9.6,0-17.4,7.8-17.4,17.4V330.3z"/>
					<path class="st5" d="M298.3,267.4h78.7c5.1,0,9.2,4.2,9.3,9.3v46.3c0,5.1-4.2,9.2-9.3,9.3H127c-5.1,0-9.2-4.2-9.3-9.3v-46.3
						c0-5.1,4.2-9.2,9.3-9.3H298.3z"/>
					<g>
						<path class="st3" d="M171.2,288.4c-0.7-1-1.7-1.7-2.8-1.9c-1.2-0.2-2.4,0-3.3,0.7l-6.4,4.3v-5c0-2.5-2-4.5-4.5-4.5
							c-2.5,0-4.5,2-4.5,4.5v5l-6.4-4.3c-2-1.4-4.8-0.8-6.2,1.2c-1.4,2-0.8,4.8,1.2,6.2l7.8,5.2l-7.8,5.2c-2,1.4-2.6,4.1-1.2,6.2
							c1.4,2,4.1,2.6,6.2,1.2l6.4-4.3v5c0,2.5,2,4.5,4.5,4.5c2.5,0,4.5-2,4.5-4.5v-5l6.4,4.3c1.3,0.9,3,1,4.4,0.3
							c1.4-0.7,2.4-2.1,2.5-3.7c0.1-1.6-0.6-3.1-2-4l-7.8-5.2l7.8-5.2c1-0.7,1.7-1.7,1.9-2.8C172,290.6,171.8,289.4,171.2,288.4
							L171.2,288.4z"/>
						<path class="st3" d="M220.1,288.4c-0.7-1-1.7-1.7-2.8-1.9c-1.2-0.2-2.4,0-3.3,0.7l-6.4,4.3v-5c0-2.5-2-4.5-4.5-4.5
							c-2.5,0-4.5,2-4.5,4.5v5l-6.4-4.3c-2-1.4-4.8-0.8-6.2,1.2c-1.4,2-0.8,4.8,1.2,6.2l7.8,5.2l-7.8,5.2c-1.3,0.9-2.1,2.4-2,4
							c0.1,1.6,1,3,2.5,3.7s3.1,0.6,4.4-0.3l6.4-4.3v5c0,2.5,2,4.5,4.5,4.5c2.5,0,4.5-2,4.5-4.5v-5l6.4,4.3c1.3,0.9,3,1,4.4,0.3
							c1.4-0.7,2.4-2.1,2.5-3.7s-0.6-3.1-2-4l-7.8-5.2l7.8-5.2c1-0.7,1.7-1.7,1.9-2.8C221,290.6,220.8,289.4,220.1,288.4
							L220.1,288.4z"/>
						<path class="st3" d="M318.1,288.4c-0.7-1-1.7-1.7-2.8-1.9c-1.2-0.2-2.4,0-3.3,0.7l-6.4,4.3v-5c0-2.5-2-4.5-4.5-4.5
							c-2.5,0-4.5,2-4.5,4.5v5l-6.4-4.3c-2-1.4-4.8-0.8-6.2,1.2c-1.4,2-0.8,4.8,1.2,6.2l7.8,5.2l-7.8,5.2c-2,1.4-2.6,4.1-1.2,6.2
							c1.4,2,4.1,2.6,6.2,1.2l6.4-4.3v5c0,2.5,2,4.5,4.5,4.5s4.5-2,4.5-4.5v-5l6.4,4.3c1.3,0.9,3,1,4.4,0.3s2.4-2.1,2.5-3.7
							s-0.6-3.1-2-4l-7.8-5.2l7.8-5.2c1-0.7,1.7-1.7,1.9-2.8C319,290.6,318.7,289.4,318.1,288.4L318.1,288.4z"/>
						<path class="st3" d="M269.1,288.4c-0.7-1-1.7-1.7-2.8-1.9c-1.2-0.2-2.4,0-3.3,0.7l-6.4,4.3v-5c0-2.5-2-4.5-4.5-4.5
							c-2.5,0-4.5,2-4.5,4.5v5l-6.4-4.3c-2-1.4-4.8-0.8-6.2,1.2c-1.4,2-0.8,4.8,1.2,6.2l7.8,5.2l-7.8,5.2c-2,1.4-2.6,4.1-1.2,6.2
							c1.4,2,4.1,2.6,6.2,1.2l6.4-4.3v5c0,2.5,2,4.5,4.5,4.5c2.5,0,4.5-2,4.5-4.5v-5l6.4,4.3c1.3,0.9,3,1,4.4,0.3s2.4-2.1,2.5-3.7
							s-0.6-3.1-2-4l-7.8-5.2l7.8-5.2c1-0.7,1.7-1.7,1.9-2.8C270,290.6,269.8,289.4,269.1,288.4L269.1,288.4z"/>
						<path class="st3" d="M363.3,308.7h-26.7c-2.5,0-4.5,2-4.5,4.5s2,4.5,4.5,4.5h26.7c2.5,0,4.5-2,4.5-4.5
							S365.8,308.7,363.3,308.7z"/>
					</g>
				</g>
				<g class="st2">
					<g>
						<path class="st6" d="M341.5,606.4c0,0-6.3-26.7-10.9-32.2c-4.6-5.6-46.8-30.7-52.9-37.6c-6.1-6.9-27.4-31.4-27.5-40.9
							s0.9-19.4-2.8-47.3c-1.2-8.6,31.5-15.8,30.3,33.2c4,6.5,7.8,15.5,12.6,14.1c4.8-1.5-3.8-38.2-6.1-47.3
							c-2.4-9.1-30.1-70.3-34-90.9c-3.9-20.6,16.6-27.1,22.2-12.9c5.6,14.2,26.9,60.1,29.3,63.8c0.9-10.8,2.9-24,6-28.7
							s36,1,38.4,11.4c14.3,5.4,22.6,12,23.9,22.4c7.2,4.8,18.7,20.1,22.5,27.8c3.8,7.8,4.5,100,6.4,115.1
							c1.9,15.1,14.5,39.3,14.5,39.3L341.5,606.4z"/>
						<path class="st7" d="M327,449.2c-0.7,0-1.3-0.5-1.5-1.2c0-0.1-1.8-7.3-5.3-11.2c-3.5-3.9-16.6-20.8-19.7-28.1
							c-0.4-0.8-0.1-1.7,0.7-2.1c0.8-0.4,1.7-0.1,2.1,0.7c0,0.1,0.1,0.1,0.1,0.2c2.8,6.5,15.1,22.8,19.1,27.2c4.1,4.5,6,12.3,6,12.6
							c0.2,0.8-0.3,1.7-1.2,1.9C327.3,449.2,327.2,449.2,327,449.2z"/>
						<path class="st7" d="M354.7,449.2c-0.6,0-1.1-0.3-1.4-0.8c-0.1-0.3-3.4-6.4-4.5-10.3c-1-3.9-3.7-40.6-4-44.7
							c0-0.9,0.7-1.6,1.6-1.6c0.8,0,1.5,0.6,1.6,1.4c1.2,16.3,3.2,41.5,3.9,44.2c0.9,3.5,4.2,9.6,4.2,9.6c0.4,0.8,0.1,1.7-0.6,2.1
							C355.2,449.1,354.9,449.2,354.7,449.2z"/>
						<path class="st7" d="M315.3,429.4c-0.9,0-1.5-0.7-1.6-1.5c-0.5-27.5,2.2-33.5,6.4-39.6c0.5-0.7,1.5-0.8,2.2-0.3
							c0.6,0.5,0.8,1.4,0.4,2.1c-3.9,5.5-6.4,11.1-5.8,37.7C316.9,428.7,316.2,429.4,315.3,429.4L315.3,429.4z"/>
						<path class="st7" d="M315.2,410.1c-0.4,0-0.8-0.2-1.1-0.5c-5.8-5.7-7.6-12.7-6.5-25c0.1-0.8,0.8-1.5,1.7-1.4c0,0,0,0,0.1,0
							c0.9,0.1,1.5,0.8,1.4,1.7c0,0,0,0,0,0c-1.2,12.9,1.2,18.2,5.5,22.4c0.6,0.6,0.6,1.6,0,2.2C316,409.9,315.6,410.1,315.2,410.1z
							"/>
						<path class="st7" d="M377.4,447.2c-0.4,0-0.8-0.2-1.1-0.5c-1.2-1.4-2.2-3-2.9-4.7c-0.7-1.7-1.6-7.6-3-16.5
							c-0.6-3.8-1.2-7.4-1.7-10c-0.2-0.9,0.4-1.7,1.3-1.8c0.9-0.2,1.7,0.4,1.8,1.3l0,0c0.5,2.6,1.1,6.2,1.7,10.1
							c1,6.4,2.3,14.3,2.9,15.8c0.5,1.3,1.3,2.6,2.2,3.7c0.6,0.6,0.6,1.6-0.1,2.2C378.1,447,377.7,447.2,377.4,447.2L377.4,447.2z"
							/>
					</g>
				</g>
			</g>
		</g>
	</g>
	<g>
		<circle class="st8" cx="396.6" cy="71.7" r="71"/>
		<g>
			<g>
				<path class="st5" d="M429,50.8c-2.1-2.1-5.5-2.1-7.6,0L387,85.1l-15.3-15.3c-2.1-2.1-5.5-2.1-7.6,0c-2.1,2.1-2.1,5.5,0,7.6
					l19.1,19.1c1.1,1.1,2.4,1.6,3.8,1.6c1.4,0,2.8-0.5,3.8-1.6L429,58.4C431.1,56.3,431.1,52.9,429,50.8z"/>
			</g>
		</g>
	</g>
</g>
</svg>
