<?xml version="1.0" encoding="utf-8"?>
<!-- Generator: Adobe Illustrator 23.0.5, SVG Export Plug-In . SVG Version: 6.00 Build 0)  -->
<!DOCTYPE svg PUBLIC "-//W3C//DTD SVG 1.1//EN" "http://www.w3.org/Graphics/SVG/1.1/DTD/svg11.dtd" [
	<!ENTITY ns_extend "http://ns.adobe.com/Extensibility/1.0/">
	<!ENTITY ns_ai "http://ns.adobe.com/AdobeIllustrator/10.0/">
	<!ENTITY ns_graphs "http://ns.adobe.com/Graphs/1.0/">
	<!ENTITY ns_vars "http://ns.adobe.com/Variables/1.0/">
	<!ENTITY ns_imrep "http://ns.adobe.com/ImageReplacement/1.0/">
	<!ENTITY ns_sfw "http://ns.adobe.com/SaveForWeb/1.0/">
	<!ENTITY ns_custom "http://ns.adobe.com/GenericCustomNamespace/1.0/">
	<!ENTITY ns_adobe_xpath "http://ns.adobe.com/XPath/1.0/">
]>
<svg version="1.1" xmlns:x="&ns_extend;" xmlns:i="&ns_ai;" xmlns:graph="&ns_graphs;"
	 xmlns="http://www.w3.org/2000/svg" xmlns:xlink="http://www.w3.org/1999/xlink" x="0px" y="0px" viewBox="0 0 512 512"
	 style="enable-background:new 0 0 512 512;" xml:space="preserve">
<style type="text/css">
	.st0{display:none;}
	.st1{display:inline;}
	.st2{fill:#EBF4FF;}
	.st3{fill:none;}
	.st4{clip-path:url(#SVGID_2_);}
	.st5{fill:#5E92DD;}
	.st6{fill:#A3BFE8;}
	.st7{fill:#FFFFFF;}
	.st8{fill-rule:evenodd;clip-rule:evenodd;fill:#FFB17E;}
	.st9{fill:#EE936B;}
	.st10{fill:#FFAE78;}
	.st11{fill:#FFFFFF;stroke:#ACC8EA;stroke-miterlimit:10;}
	.st12{clip-path:url(#SVGID_4_);}
	.st13{fill-rule:evenodd;clip-rule:evenodd;fill:#F1F4FF;}
	.st14{fill:#9BB0C5;}
	.st15{fill:#B6C6D3;}
	.st16{fill:#C4CFE2;}
	.st17{fill:#F1F4FF;}
	.st18{clip-path:url(#SVGID_6_);}
	.st19{fill-rule:evenodd;clip-rule:evenodd;fill:#C4CFE2;}
	.st20{fill:#DADFE5;}
</style>
<metadata>
	<sfw  xmlns="&ns_sfw;">
		<slices></slices>
		<sliceSourceBounds  bottomLeftOrigin="true" height="605.8" width="512" x="0" y="-94.4"></sliceSourceBounds>
	</sfw>
</metadata>
<g id="Layer_1" class="st0">
	<g class="st1">
		<g>
			<circle class="st2" cx="256.7" cy="257.3" r="255.3"/>
			<circle class="st3" cx="256.7" cy="257.3" r="255.3"/>
			<g>
				<g>
					<defs>
						<circle id="SVGID_1_" cx="256.7" cy="257.3" r="255.3"/>
					</defs>
					<clipPath id="SVGID_2_">
						<use xlink:href="#SVGID_1_"  style="overflow:visible;"/>
					</clipPath>
					<g class="st4">
						<path id="Shape_1_" class="st5" d="M295.6,221.3v-26.2c0-24.1-19.5-43.6-43.6-43.6s-43.6,19.5-43.6,43.6v26.2h-26.2v-26.2
							c0-38.5,31.2-69.7,69.7-69.7s69.7,31.2,69.7,69.7v26.2H295.6z"/>
						<path class="st6" d="M160.5,330.3v30.5c0,9.6,7.8,17.4,17.4,17.4h148.2c9.6,0,17.4-7.8,17.4-17.4V238.8
							c0-9.6-7.8-17.4-17.4-17.4H177.9c-9.6,0-17.4,7.8-17.4,17.4V330.3z"/>
						<path class="st7" d="M298.3,267.4h78.7c5.1,0,9.2,4.2,9.3,9.3v46.3c0,5.1-4.2,9.2-9.3,9.3H127c-5.1,0-9.2-4.2-9.3-9.3v-46.3
							c0-5.1,4.2-9.2,9.3-9.3H298.3z"/>
						<g>
							<path class="st5" d="M171.2,288.4c-0.7-1-1.7-1.7-2.8-1.9c-1.2-0.2-2.4,0-3.3,0.7l-6.4,4.3v-5c0-2.5-2-4.5-4.5-4.5
								c-2.5,0-4.5,2-4.5,4.5v5l-6.4-4.3c-2-1.4-4.8-0.8-6.2,1.2c-1.4,2-0.8,4.8,1.2,6.2l7.8,5.2l-7.8,5.2c-2,1.4-2.6,4.1-1.2,6.2
								c1.4,2,4.1,2.6,6.2,1.2l6.4-4.3v5c0,2.5,2,4.5,4.5,4.5c2.5,0,4.5-2,4.5-4.5v-5l6.4,4.3c1.3,0.9,3,1,4.4,0.3
								c1.4-0.7,2.4-2.1,2.5-3.7c0.1-1.6-0.6-3.1-2-4l-7.8-5.2l7.8-5.2c1-0.7,1.7-1.7,1.9-2.8C172,290.6,171.8,289.4,171.2,288.4
								L171.2,288.4z"/>
							<path class="st5" d="M220.1,288.4c-0.7-1-1.7-1.7-2.8-1.9c-1.2-0.2-2.4,0-3.3,0.7l-6.4,4.3v-5c0-2.5-2-4.5-4.5-4.5
								c-2.5,0-4.5,2-4.5,4.5v5l-6.4-4.3c-2-1.4-4.8-0.8-6.2,1.2c-1.4,2-0.8,4.8,1.2,6.2l7.8,5.2l-7.8,5.2c-1.3,0.9-2.1,2.4-2,4
								c0.1,1.6,1,3,2.5,3.7s3.1,0.6,4.4-0.3l6.4-4.3v5c0,2.5,2,4.5,4.5,4.5c2.5,0,4.5-2,4.5-4.5v-5l6.4,4.3c1.3,0.9,3,1,4.4,0.3
								c1.4-0.7,2.4-2.1,2.5-3.7s-0.6-3.1-2-4l-7.8-5.2l7.8-5.2c1-0.7,1.7-1.7,1.9-2.8C221,290.6,220.8,289.4,220.1,288.4
								L220.1,288.4z"/>
							<path class="st5" d="M318.1,288.4c-0.7-1-1.7-1.7-2.8-1.9c-1.2-0.2-2.4,0-3.3,0.7l-6.4,4.3v-5c0-2.5-2-4.5-4.5-4.5
								c-2.5,0-4.5,2-4.5,4.5v5l-6.4-4.3c-2-1.4-4.8-0.8-6.2,1.2c-1.4,2-0.8,4.8,1.2,6.2l7.8,5.2l-7.8,5.2c-2,1.4-2.6,4.1-1.2,6.2
								c1.4,2,4.1,2.6,6.2,1.2l6.4-4.3v5c0,2.5,2,4.5,4.5,4.5s4.5-2,4.5-4.5v-5l6.4,4.3c1.3,0.9,3,1,4.4,0.3s2.4-2.1,2.5-3.7
								s-0.6-3.1-2-4l-7.8-5.2l7.8-5.2c1-0.7,1.7-1.7,1.9-2.8C319,290.6,318.7,289.4,318.1,288.4L318.1,288.4z"/>
							<path class="st5" d="M269.1,288.4c-0.7-1-1.7-1.7-2.8-1.9c-1.2-0.2-2.4,0-3.3,0.7l-6.4,4.3v-5c0-2.5-2-4.5-4.5-4.5
								c-2.5,0-4.5,2-4.5,4.5v5l-6.4-4.3c-2-1.4-4.8-0.8-6.2,1.2c-1.4,2-0.8,4.8,1.2,6.2l7.8,5.2l-7.8,5.2c-2,1.4-2.6,4.1-1.2,6.2
								c1.4,2,4.1,2.6,6.2,1.2l6.4-4.3v5c0,2.5,2,4.5,4.5,4.5c2.5,0,4.5-2,4.5-4.5v-5l6.4,4.3c1.3,0.9,3,1,4.4,0.3s2.4-2.1,2.5-3.7
								s-0.6-3.1-2-4l-7.8-5.2l7.8-5.2c1-0.7,1.7-1.7,1.9-2.8C270,290.6,269.8,289.4,269.1,288.4L269.1,288.4z"/>
							<path class="st5" d="M363.3,308.7h-26.7c-2.5,0-4.5,2-4.5,4.5s2,4.5,4.5,4.5h26.7c2.5,0,4.5-2,4.5-4.5
								S365.8,308.7,363.3,308.7z"/>
						</g>
					</g>
					<g class="st4">
						<g>
							<path class="st8" d="M341.5,606.4c0,0-6.3-26.7-10.9-32.2c-4.6-5.6-46.8-30.7-52.9-37.6c-6.1-6.9-27.4-31.4-27.5-40.9
								s0.9-19.4-2.8-47.3c-1.2-8.6,31.5-15.8,30.3,33.2c4,6.5,7.8,15.5,12.6,14.1c4.8-1.5-3.8-38.2-6.1-47.3
								c-2.4-9.1-30.1-70.3-34-90.9c-3.9-20.6,16.6-27.1,22.2-12.9c5.6,14.2,26.9,60.1,29.3,63.8c0.9-10.8,2.9-24,6-28.7
								s36,1,38.4,11.4c14.3,5.4,22.6,12,23.9,22.4c7.2,4.8,18.7,20.1,22.5,27.8c3.8,7.8,4.5,100,6.4,115.1
								c1.9,15.1,14.5,39.3,14.5,39.3L341.5,606.4z"/>
							<path class="st9" d="M327,449.2c-0.7,0-1.3-0.5-1.5-1.2c0-0.1-1.8-7.3-5.3-11.2c-3.5-3.9-16.6-20.8-19.7-28.1
								c-0.4-0.8-0.1-1.7,0.7-2.1c0.8-0.4,1.7-0.1,2.1,0.7c0,0.1,0.1,0.1,0.1,0.2c2.8,6.5,15.1,22.8,19.1,27.2
								c4.1,4.5,6,12.3,6,12.6c0.2,0.8-0.3,1.7-1.2,1.9C327.3,449.2,327.2,449.2,327,449.2z"/>
							<path class="st9" d="M354.7,449.2c-0.6,0-1.1-0.3-1.4-0.8c-0.1-0.3-3.4-6.4-4.5-10.3c-1-3.9-3.7-40.6-4-44.7
								c0-0.9,0.7-1.6,1.6-1.6c0.8,0,1.5,0.6,1.6,1.4c1.2,16.3,3.2,41.5,3.9,44.2c0.9,3.5,4.2,9.6,4.2,9.6c0.4,0.8,0.1,1.7-0.6,2.1
								C355.2,449.1,354.9,449.2,354.7,449.2z"/>
							<path class="st9" d="M315.3,429.4c-0.9,0-1.5-0.7-1.6-1.5c-0.5-27.5,2.2-33.5,6.4-39.6c0.5-0.7,1.5-0.8,2.2-0.3
								c0.6,0.5,0.8,1.4,0.4,2.1c-3.9,5.5-6.4,11.1-5.8,37.7C316.9,428.7,316.2,429.4,315.3,429.4L315.3,429.4z"/>
							<path class="st9" d="M315.2,410.1c-0.4,0-0.8-0.2-1.1-0.5c-5.8-5.7-7.6-12.7-6.5-25c0.1-0.8,0.8-1.5,1.7-1.4c0,0,0,0,0.1,0
								c0.9,0.1,1.5,0.8,1.4,1.7c0,0,0,0,0,0c-1.2,12.9,1.2,18.2,5.5,22.4c0.6,0.6,0.6,1.6,0,2.2C316,409.9,315.6,410.1,315.2,410.1
								z"/>
							<path class="st9" d="M377.4,447.2c-0.4,0-0.8-0.2-1.1-0.5c-1.2-1.4-2.2-3-2.9-4.7c-0.7-1.7-1.6-7.6-3-16.5
								c-0.6-3.8-1.2-7.4-1.7-10c-0.2-0.9,0.4-1.7,1.3-1.8c0.9-0.2,1.7,0.4,1.8,1.3l0,0c0.5,2.6,1.1,6.2,1.7,10.1
								c1,6.4,2.3,14.3,2.9,15.8c0.5,1.3,1.3,2.6,2.2,3.7c0.6,0.6,0.6,1.6-0.1,2.2C378.1,447,377.7,447.2,377.4,447.2L377.4,447.2z"
								/>
						</g>
					</g>
				</g>
			</g>
		</g>
		<g>
			<circle class="st10" cx="396.6" cy="71.7" r="71"/>
			<g>
				<g>
					<path class="st7" d="M429,50.8c-2.1-2.1-5.5-2.1-7.6,0L387,85.1l-15.3-15.3c-2.1-2.1-5.5-2.1-7.6,0c-2.1,2.1-2.1,5.5,0,7.6
						l19.1,19.1c1.1,1.1,2.4,1.6,3.8,1.6c1.4,0,2.8-0.5,3.8-1.6L429,58.4C431.1,56.3,431.1,52.9,429,50.8z"/>
				</g>
			</g>
		</g>
	</g>
</g>
<g id="Layer_2" class="st0">
	<g class="st1">
		<circle class="st2" cx="254.5" cy="258.3" r="253.7"/>
		<circle class="st11" cx="118.1" cy="232.2" r="62.5"/>
		
			<image style="overflow:visible;" width="157" height="177" xlink:href="2B59C6BB.jpg"  transform="matrix(0.4518 0 0 0.4518 82.6669 192.1914)">
		</image>
		<circle class="st11" cx="254.7" cy="230.2" r="62.5"/>
		
			<image style="overflow:visible;" width="365" height="365" xlink:href="2B59C6B9.jpg"  transform="matrix(0.228 0 0 0.228 212.6713 190.5612)">
		</image>
		<circle class="st11" cx="390.6" cy="230.2" r="62.5"/>
		
			<image style="overflow:visible;" width="300" height="300" xlink:href="2B59C6BF.jpg"  transform="matrix(0.2666 0 0 0.2666 350.6093 192.1914)">
		</image>
		<g>
			<defs>
				<circle id="SVGID_3_" cx="254.5" cy="258.3" r="253.7"/>
			</defs>
			<clipPath id="SVGID_4_">
				<use xlink:href="#SVGID_3_"  style="overflow:visible;"/>
			</clipPath>
			<g class="st12">
				<path class="st5" d="M428.7,328.3c-0.1-0.2-0.2-0.3-0.3-0.5c-0.5-0.9-1.2-1.7-2.1-2.3l-64.2-48.7c-3.9-3-11-3.4-16-0.9
					l-184.4,90.3c-8.6,3.8-11.9,13.5-5.1,20.5l62.3,57.5c4.1,3.8,12.3,4.2,18.2,1l186.5-100.1C427.9,342.8,431.8,334.2,428.7,328.3
					L428.7,328.3z"/>
				<path class="st5" d="M220.3,435.1L158,377.6c-3.8-3.5-2-8.6,3.8-11.5l184.4-90.3c5-2.4,12.1-2,16,0.9l64.2,48.7
					c4.2,3.2,3.6,7.9-1.4,10.6L238.5,436.2C232.5,439.4,224.4,438.9,220.3,435.1z"/>
				<path class="st13" d="M225.8,431.8L164,375c-1.9-1.7-1-4.3,1.9-5.8l183.7-90.4c2.5-1.2,6.1-1,8.1,0.5l63.7,48.5
					c2.1,1.6,1.8,4-0.7,5.3l-185.6,99.2C232,433.9,227.9,433.7,225.8,431.8L225.8,431.8z"/>
				<path class="st14" d="M335.7,303.6c-3.7,1.8-8.9,1.5-11.7-0.7c-2.8-2.2-2.1-5.5,1.6-7.3c3.7-1.8,8.9-1.5,11.7,0.7
					S339.4,301.8,335.7,303.6L335.7,303.6z"/>
				<path class="st15" d="M362.4,330.6l-25.6-20.2l-3.2-0.4l9.3-4.7c1.5-0.7,3.3-0.6,4.7,0.3l25.2,19.7c1.2,0.9,0.9,2.3-0.5,3
					l-5.1,2.6C365.6,331.6,363.8,331.5,362.4,330.6z"/>
				<path class="st14" d="M315.8,313.6c-3.7,1.9-9.1,1.6-11.8-0.7c-2.8-2.3-2-5.6,1.7-7.4c3.7-1.8,9-1.5,11.8,0.7
					C320.3,308.4,319.6,311.7,315.8,313.6z"/>
				<path class="st14" d="M346.7,344.5l-29.9-24.1l-3.3-0.5l9.5-4.8c1.5-0.7,3.3-0.6,4.7,0.3l29.6,23.5c1.2,0.9,0.9,2.3-0.6,3.1
					l-5.1,2.7C349.9,345.6,348.1,345.5,346.7,344.5L346.7,344.5z"/>
				<path class="st14" d="M250.9,346.1c-4,2-9.5,1.7-12.2-0.7c-2.7-2.4-1.8-5.9,2.2-7.8s9.4-1.6,12.1,0.7
					C255.7,340.6,254.8,344.1,250.9,346.1z"/>
				<path class="st15" d="M272.4,371.3l-21-18l-3.4-0.5l10-5.1c1.6-0.8,3.7-0.7,4.9,0.3l20.6,17.5c1.1,1,0.8,2.4-0.8,3.2l-5.4,2.8
					C275.8,372.4,273.6,372.3,272.4,371.3z"/>
				<path class="st7" d="M304.3,335.9l39,31.9l0,2.3l9.7-5.2c1.5-0.8,1.8-2.2,0.6-3.2L315,330.5c-1.4-0.9-3.2-1-4.8-0.3l-5.2,2.6
					C303.4,333.6,303.1,335,304.3,335.9L304.3,335.9z"/>
				<path class="st7" d="M279.1,348.7l38.8,32.6l0,2.4l15.7-8.4c1.5-0.8,1.8-2.3,0.7-3.2l-38.5-31.7c-1.1-0.9-3.3-1.1-4.8-0.3
					l-11.1,5.6C278.3,346.3,278,347.7,279.1,348.7L279.1,348.7z"/>
				<path class="st16" d="M396.1,327c-1.2,0.6-2.7,0.5-3.9-0.2c-1-0.7-0.8-1.9,0.4-2.5c1.2-0.6,2.7-0.5,3.9,0.2
					C397.5,325.3,397.3,326.4,396.1,327z"/>
				<path class="st16" d="M401.8,331.4c-1.2,0.6-2.7,0.5-3.9-0.2c-1-0.8-0.8-1.9,0.4-2.5c1.2-0.6,2.7-0.5,3.9,0.2
					C403.2,329.7,403,330.8,401.8,331.4z"/>
				<path class="st16" d="M407.6,335.8c-1.3,0.6-2.7,0.5-3.9-0.2c-1-0.8-0.8-1.9,0.3-2.5c1.3-0.6,2.7-0.5,3.9,0.2
					C408.9,334.1,408.7,335.2,407.6,335.8z"/>
				<path class="st16" d="M165.9,369.2c-2.9,1.5-3.8,4-1.9,5.8l61.9,56.8c2.1,1.9,6.1,2.1,9.2,0.6l12.7-6.8l-69.3-62.5L165.9,369.2z
					"/>
				<path class="st17" d="M213.5,415.5L170.4,376c-2-1.9-1.1-4.6,2-6.2c3.1-1.5,7.3-1.3,9.4,0.5l43.3,39.1c2.2,2,1.4,4.9-1.8,6.5
					C220,417.8,215.7,417.5,213.5,415.5L213.5,415.5z"/>
				<path class="st16" d="M221.6,414.9c-1.9,1-4.6,0.9-5.9-0.3c-1.3-1.2-0.8-3,1.1-4c1.9-1,4.5-0.8,5.9,0.3S223.5,413.9,221.6,414.9
					z"/>
				<g>
					<path class="st17" d="M230.3,422.8c-1.9,1-4.6,0.9-5.9-0.3c-1.3-1.2-0.8-3,1.1-4c1.9-1,4.6-0.9,5.9,0.3
						C232.7,419.9,232.2,421.8,230.3,422.8z"/>
					<path class="st17" d="M232.7,426.7c-0.5-0.4-0.3-1.1,0.4-1.5l1.9-1c0.7-0.4,1.5-0.3,2.1,0.1c0.5,0.4,0.3,1.1-0.4,1.5l-1.9,1
						C234.2,427.1,233.4,427.1,232.7,426.7L232.7,426.7z"/>
					<path class="st17" d="M233.3,427.7c-0.5-0.1-1-0.2-1.3-0.6c-0.3-0.3-0.5-0.7-0.5-1.2c0.1-0.6,0.5-1.1,1.1-1.4l0.8-0.4
						c0.1-0.1,0.3,0,0.4,0.1c0.1,0.1,0,0.3-0.1,0.4c0,0,0,0,0,0l-0.8,0.4c-0.4,0.2-0.7,0.5-0.8,0.9c0,0.3,0.1,0.5,0.3,0.7
						c0.8,0.6,1.9,0.6,2.7,0.1l0.8-0.4c0.1-0.1,0.3,0,0.4,0.1c0.1,0.1,0,0.3-0.1,0.4l-0.8,0.4C234.7,427.7,234,427.8,233.3,427.7z"
						/>
					<path class="st17" d="M230.5,428.1c-0.1,0-0.3-0.1-0.2-0.3c0-0.1,0.1-0.2,0.1-0.2l1.6-0.9c0.1-0.1,0.3,0,0.4,0.1c0,0,0,0,0,0
						c0.1,0.1,0,0.3-0.1,0.4c0,0,0,0,0,0l-1.6,0.9C230.6,428.1,230.5,428.1,230.5,428.1z"/>
				</g>
				<path class="st8" d="M77.3,451.2c0,0,37.3-25.6,47.3-33.7c10-8.1,15.2-29.3,27.9-33.9s41.7-25.2,49.3-22.5
					c7.6,2.8,24.2,4.5,47.1,2.6c11.5-1,7.6,22.8-10.8,27.3c-13.3,3.2-28.7,3.7-32.5,4.3s-9.9,9.8-9.9,9.8s68.4-1.5,71.4-1.3
					c3,0.3,41.5-14.3,58.9-20.1c20.1-6.7,29.7,11.7,20.2,15.1c-19.9,7.2-28.5,12-28.5,12s-14.2,29-20.8,33.6
					c-6.6,4.6-15.4,7.1-15.4,7.1s-13.1,21.6-19.5,25.1c-6.4,3.5-10.6,4.3-14.3,6.8s-9.7,10.9-17.1,11.9c-7.4,1-63.2-0.9-74.4-0.5
					c-11.2,0.4-41.2,23.6-41.2,23.6L77.3,451.2z"/>
				<path class="st9" d="M248.1,438.1c-0.6-0.1-1-0.6-0.9-1.2c0.1-0.4,0.4-0.8,0.8-0.9c11.5-2.6,31.6-7.2,34.2-8.3
					c3.2-1.3,31-15.2,31.3-15.4c0.5-0.3,1.2-0.1,1.4,0.4c0.3,0.5,0.1,1.2-0.4,1.4c0,0,0,0-0.1,0c-1.1,0.6-28.2,14.1-31.5,15.4
					c-3.4,1.4-31.4,7.7-34.5,8.4C248.4,438.1,248.3,438.1,248.1,438.1L248.1,438.1z"/>
				<path class="st9" d="M249,461.8c-0.4-0.1-0.8-0.4-0.9-0.8c-0.1-0.6,0.3-1.1,0.8-1.2c0,0,0,0,0,0c3.1-0.6,27.7-6.5,27.9-6.5
					c0.6-0.2,1.1,0.2,1.3,0.7c0.2,0.6-0.2,1.1-0.7,1.3c0,0-0.1,0-0.1,0c-1,0.2-24.9,5.9-28.1,6.5C249.2,461.8,249.1,461.8,249,461.8
					L249,461.8z"/>
				<path class="st9" d="M186,406c-1.1-0.1-2.2-0.4-3.2-0.7c-2.5-0.9-4.1-3.4-3.8-6.1c0.1-0.6,0.6-1,1.2-0.9c0.6,0,1,0.5,0.9,1.1
					c0,0,0,0,0,0.1c-0.2,1.7,0.8,3.3,2.4,3.8c3.1,1.1,10.1,1,10.2,1c0.6,0,1.1,0.4,1.1,1c0,0,0,0,0,0c0,0.6-0.5,1.1-1,1.1
					c0,0,0,0,0,0C191.2,406.4,188.6,406.3,186,406L186,406z"/>
			</g>
		</g>
		<g>
			<g>
				<circle class="st10" cx="409.7" cy="71.2" r="70.6"/>
			</g>
			<path class="st7" d="M440.4,66.9h-23.2V43.7c0-2.9-2.4-5.3-5.3-5.3s-5.3,2.4-5.3,5.3v23.2h-23.2c-2.9,0-5.3,2.4-5.3,5.3
				s2.4,5.3,5.3,5.3h23.2v23.2c0,2.9,2.4,5.3,5.3,5.3s5.3-2.4,5.3-5.3V77.5h23.2c2.9,0,5.3-2.4,5.3-5.3S443.3,66.9,440.4,66.9z"/>
		</g>
	</g>
</g>
<g id="Layer_3">
	<g>
		<circle class="st2" cx="253" cy="259" r="253"/>
		<g>
			<defs>
				<circle id="SVGID_5_" cx="253" cy="259" r="253"/>
			</defs>
			<clipPath id="SVGID_6_">
				<use xlink:href="#SVGID_5_"  style="overflow:visible;"/>
			</clipPath>
			<g class="st18">
				<path class="st8" d="M108.9,496.4c0,0,20.5-45.8,24.6-60.3s25.1-124.5,30.3-138.2c5.2-13.7,30.8-66.2,33.6-70.8
					c2.8-4.6,43.5-34.1,58.8-47.7c15.2-13.7,30.3,15.2,9.9,36.8s-38.2,32.7-40,35.5c-1.8,2.8-13.7,42.1-14.5,46.3
					c-0.8,4.2,2.4,6.2,6.5,2.3c4.1-3.9,35.9-51.9,38.1-57.3c2.2-5.4,38.5-47.3,52.3-63.6c12.3-14.4,35,3.2,22,23.7
					c15.9-1.7,18.6,16.8,7,33.8c-10.5,15.3-22,30-25.9,36.1c-4,6.1-34.6,54.4-36.4,58.3c-1.8,3.9,3.7,6.8,7.1,4.7
					s22.9-20.1,24.4-21.1s6.1-24.8,12.4-35.1c6.4-10.3,26.1-7.6,21.4,2.9c-8.3,18.6-10.4,40.3-14.2,45s-25.3,29.5-30.8,36
					s-28.5,60-39.1,72.5c-10.6,12.5-32.5,26.1-38.1,34.1c-5.6,8-26.1,59.3-26.1,59.3L108.9,496.4z"/>
				<path d="M285.5,353.7c-0.5,0-1-0.2-1.4-0.6c-21.6-21.4-48.4-36.8-77.9-44.6c-1.1-0.3-1.7-1.4-1.4-2.4c0.3-1.1,1.3-1.7,2.4-1.4
					c0,0,0,0,0.1,0c30.1,8,57.5,23.7,79.6,45.6c0.8,0.8,0.8,2,0.1,2.8C286.6,353.5,286.1,353.7,285.5,353.7L285.5,353.7z"/>
				<path class="st9" d="M211,431.5c-0.3,0-0.5-0.1-0.8-0.2c-1-0.4-1.5-1.6-1.1-2.6c8.1-19.5,18.8-30.1,31.2-42.3
					c6.9-6.7,13.5-13.7,19.7-21.1c0.7-0.8,2-0.9,2.8-0.2c0.8,0.7,0.9,1.9,0.3,2.8c-6.3,7.5-12.9,14.7-20,21.4
					c-12.1,12-22.5,22.3-30.3,41.1C212.6,431,211.8,431.5,211,431.5z"/>
				<path d="M253,323.2c-0.7,0-1.3-0.3-1.7-0.9c-1.8-3.1-1.8-7,0-10.1c2.6-4.3,32.5-50.2,36.8-56.4c2-3,9.1-12,17.3-22.5
					c9.3-12,19.9-25.5,23.3-30.4c0.6-0.9,1.9-1.1,2.8-0.5c0.9,0.6,1.1,1.9,0.5,2.8l0,0c-3.4,5-14.1,18.6-23.4,30.6
					c-7.8,10-15.2,19.4-17.2,22.3c-4.3,6.2-34.1,51.9-36.6,56.2c-1.1,1.8-1.1,4.1,0,5.9c0.6,0.9,0.3,2.2-0.7,2.8
					C253.8,323.1,253.4,323.2,253,323.2L253,323.2z"/>
				<path class="st5" d="M196.8,103.9h126.1c8.9,0,16.2,7.3,16.2,16.2v274.7c0,8.9-7.3,16.2-16.2,16.2H196.8
					c-8.9,0-16.2-7.3-16.2-16.2V120.1C180.6,111.1,187.9,103.9,196.8,103.9z"/>
				<path class="st17" d="M198.4,111.8h123c5.5,0,10,4.5,10,10v271.4c0,5.5-4.5,10-10,10h-123c-5.5,0-10-4.5-10-10V121.7
					C188.4,116.2,192.9,111.8,198.4,111.8z"/>
				<path class="st13" d="M331.3,118.3V142H188.4v-23.6c0-3.6,2.9-6.5,6.5-6.5h129.9C328.4,111.8,331.3,114.7,331.3,118.3z"/>
				<path class="st19" d="M331.3,384v11.2c0,4.3-3.5,7.8-7.8,7.8l0,0H196.3c-4.3,0-7.8-3.5-7.8-7.8l0,0V384H331.3z"/>
				<path class="st16" d="M234.2,123h54c2,0,3.6,1.6,3.6,3.6l0,0c0,2-1.6,3.6-3.6,3.6h-54c-2,0-3.6-1.6-3.6-3.6l0,0
					C230.6,124.7,232.2,123,234.2,123z"/>
				<path class="st8" d="M134.6,434.7c1.4-12.5-13.9-75.1-13.2-82.4c0.7-7.3,11.3-50.1,16.1-56.1c4.8-5.9,19.9-8.1,51.4-30.1
					c25.3-17.6,29.1,30.7,9.8,42c-14.4,8.4-23.9,13.9-26.3,17.2c-2.5,3.3-2.3,17.1,0,26.4c2.3,9.3,35.6,41.7,26.3,70.7
					S131.9,458,134.6,434.7z"/>
				<path class="st9" d="M198.8,424.4c-0.2,0-0.4,0-0.6-0.1c-1-0.3-1.6-1.4-1.3-2.5c0,0,0,0,0,0c6.5-20.2-8.7-42.2-18.8-56.7
					c-4-5.8-6.9-10-7.6-12.9c-2.3-9.4-2.7-24,0.3-28.1c2.6-3.5,11.2-8.6,25.6-16.9l1.3-0.8c8.1-4.7,11.5-16.7,11.2-25.9
					c-0.2-7.6-2.8-13.5-6.7-15.4c-3.9-2-8.8,0.4-12.2,2.7c-0.9,0.6-2.2,0.3-2.7-0.6c-0.5-0.9-0.3-2,0.5-2.6c7.7-5.3,13.1-4.6,16.2-3
					c5.3,2.7,8.6,9.7,8.9,18.9c0.3,10.6-3.6,23.9-13.2,29.4l-1.3,0.8c-12.9,7.5-22.3,13-24.4,15.9c-1.8,2.4-1.9,15.3,0.3,24.7
					c0.5,2.2,3.5,6.5,7,11.6c9.9,14.3,26.3,38.2,19.3,60.2C200.3,423.8,199.6,424.4,198.8,424.4z"/>
			</g>
		</g>
		<g>
			<g>
				<circle class="st10" cx="422.7" cy="72.3" r="70.4"/>
			</g>
			<g>
				<path class="st7" d="M424.1,67.4c-2.7,0-4.9,2.2-4.9,4.9s2.2,4.9,4.9,4.9s4.9-2.2,4.9-4.9S426.8,67.4,424.1,67.4z"/>
				<path class="st7" d="M410,67.4c-2.7,0-4.9,2.2-4.9,4.9s2.2,4.9,4.9,4.9c2.7,0,4.9-2.2,4.9-4.9S412.7,67.4,410,67.4z"/>
				<path class="st7" d="M424.1,36.1c-20,0-36.2,16.2-36.2,36.2c0,6.3,1.7,12.5,4.8,18l-4.7,14.5c-0.3,1-0.1,2.1,0.7,2.9
					c0.7,0.7,1.8,1,2.9,0.7l14.5-4.7c5.5,3.1,11.7,4.8,18,4.8c20,0,36.2-16.2,36.2-36.2C460.3,52.3,444.1,36.1,424.1,36.1z
					 M424.1,102.8c-5.7,0-11.3-1.6-16.2-4.6c-0.7-0.4-1.6-0.6-2.4-0.3l-10.5,3.4l3.4-10.5c0.3-0.8,0.1-1.7-0.3-2.4
					c-3-4.8-4.6-10.4-4.6-16.2c0-16.8,13.7-30.5,30.5-30.5s30.5,13.7,30.5,30.5C454.7,89.1,441,102.8,424.1,102.8z"/>
				<path class="st7" d="M438.3,67.4c-2.7,0-4.9,2.2-4.9,4.9s2.2,4.9,4.9,4.9c2.7,0,4.9-2.2,4.9-4.9S441,67.4,438.3,67.4z"/>
			</g>
		</g>
		<g>
			<path class="st20" d="M306,203.7h-94.2c-3.7,0-6.8-3-6.8-6.8v-36c0-3.7,3-6.8,6.8-6.8H306c3.7,0,6.8,3,6.8,6.8v36
				C312.8,200.6,309.8,203.7,306,203.7z"/>
			<path class="st20" d="M225.9,200.1h-13.2c-0.4,0-0.6,0.4-0.6,0.9v8.8c0,0.6,0.5,1.1,0.9,0.8l13.2-8.8
				C226.8,201.3,226.6,200.1,225.9,200.1z"/>
		</g>
		<path class="st7" d="M310.6,240.1H208.5c-1.5,0-2.8-1.2-2.8-2.8v-9.6c0-1.5,1.2-2.8,2.8-2.8h102.2c1.5,0,2.8,1.2,2.8,2.8v9.6
			C313.4,238.9,312.1,240.1,310.6,240.1z"/>
		<path class="st7" d="M310.6,262.2H208.5c-1.5,0-2.8-1.2-2.8-2.8v-9.6c0-1.5,1.2-2.8,2.8-2.8h102.2c1.5,0,2.8,1.2,2.8,2.8v9.6
			C313.4,260.9,312.1,262.2,310.6,262.2z"/>
		<path class="st7" d="M310.6,323H208.5c-1.5,0-2.8-1.2-2.8-2.8v-9.6c0-1.5,1.2-2.8,2.8-2.8h102.2c1.5,0,2.8,1.2,2.8,2.8v9.6
			C313.4,321.8,312.1,323,310.6,323z"/>
		<path class="st7" d="M310.6,345.1H208.5c-1.5,0-2.8-1.2-2.8-2.8v-9.6c0-1.5,1.2-2.8,2.8-2.8h102.2c1.5,0,2.8,1.2,2.8,2.8v9.6
			C313.4,343.8,312.1,345.1,310.6,345.1z"/>
		<path class="st7" d="M254.8,368h-46.3c-1.5,0-2.8-1.2-2.8-2.8v-9.6c0-1.5,1.2-2.8,2.8-2.8h46.3c1.5,0,2.8,1.2,2.8,2.8v9.6
			C257.5,366.8,256.3,368,254.8,368z"/>
	</g>
</g>
</svg>
