<svg id="Group_78371" data-name="Group 78371" xmlns="http://www.w3.org/2000/svg" width="15.383" height="17.972" viewBox="0 0 15.383 17.972">
  <path id="Path_301760" data-name="Path 301760" d="M301.961,275.095l-4.831-3.472a6.681,6.681,0,0,1-2.861-5.58v-6.166c2.915-1.836,5.3-2.754,7.692-2.754s4.776.918,7.692,2.754v6.166a6.681,6.681,0,0,1-2.861,5.58Z" transform="translate(-294.269 -257.123)" fill="#72d561" fill-rule="evenodd"/>
  <path id="Path_301761" data-name="Path 301761" d="M389.519,275.479l-.725-.521,4.348-3.125a6.682,6.682,0,0,0,2.861-5.58v-6.166a17.638,17.638,0,0,0-5.727-2.549,15.536,15.536,0,0,1,6.935,2.724v6.166a6.681,6.681,0,0,1-2.861,5.58Z" transform="translate(-381.828 -257.507)" fill="#3cbe52" fill-rule="evenodd"/>
  <path id="Path_301762" data-name="Path 301762" d="M327.038,297.712l3.666-2.635a4.689,4.689,0,0,0,2.03-3.959v-5.044a9.565,9.565,0,0,0-11.393,0v5.044a4.689,4.689,0,0,0,2.03,3.959Z" transform="translate(-319.346 -282.197)" fill="#3cbe52" fill-rule="evenodd"/>
  <path id="Path_301763" data-name="Path 301763" d="M327.038,297.711l.553-.4-3.113-2.238a4.689,4.689,0,0,1-2.03-3.959v-5.044a12.466,12.466,0,0,1,5.144-1.86q-.276-.022-.553-.022a11.7,11.7,0,0,0-5.7,1.881v5.044a4.689,4.689,0,0,0,2.03,3.959Z" transform="translate(-319.346 -282.196)" fill="#30aa44" fill-rule="evenodd"/>
  <path id="Path_301764" data-name="Path 301764" d="M352.7,336.808a1.069,1.069,0,0,1,1.516,1.508l-3.638,3.672a1.069,1.069,0,0,1-1.5.012l-1.849-1.8a1.069,1.069,0,1,1,1.491-1.533l1.091,1.063Z" transform="translate(-343.02 -330.643)" fill="#eff4f7" fill-rule="evenodd"/>
  <path id="Path_301765" data-name="Path 301765" d="M354.435,345.178a1.07,1.07,0,0,1-.221,1.183l-3.638,3.672a1.069,1.069,0,0,1-1.5.012l-1.849-1.8a1.07,1.07,0,0,1-.234-1.2,1.065,1.065,0,0,0,.234.337l1.849,1.8a1.069,1.069,0,0,0,1.5-.012l3.638-3.672A1.067,1.067,0,0,0,354.435,345.178Z" transform="translate(-343.02 -338.688)" fill="#e2e3e3" fill-rule="evenodd"/>
</svg>
